<?xml version="1.0" encoding="utf-8"?>
<!-- Generator: Adobe Illustrator 13.0.0, SVG Export Plug-In . SVG Version: 6.00 Build 14948)  -->
<!DOCTYPE svg PUBLIC "-//W3C//DTD SVG 1.1//EN" "http://www.w3.org/Graphics/SVG/1.1/DTD/svg11.dtd">
<svg version="1.1" id="Layer_1" xmlns:fi="http://pattern.flaticon.com/"
	 xmlns="http://www.w3.org/2000/svg" xmlns:xlink="http://www.w3.org/1999/xlink" x="0px" y="0px" width="700px" height="350px"
	 viewBox="0 0 700 350" enable-background="new 0 0 700 350" xml:space="preserve">
<pattern  x="199.5" y="324.5" width="350" height="350" patternUnits="userSpaceOnUse" id="pattern_L1_7" viewBox="264.39 -672.44 350 350" overflow="visible">
	<g>
		<polygon fill="none" points="264.39,-322.44 614.39,-322.44 614.39,-672.44 264.39,-672.44 		"/>
		<g>
			
				<g transform="matrix(0.11729688628039896 -0.02574809785325106 0.02574809785325106 0.11729688628039896 82.59192998211728 34.533637851576515)">
				<path fill="#62A5A2" d="M-298.748-435.967c-6.103,0.192-12.061,1.865-17.34,4.827L-349.4-551.022
					c6.132,0.114,12.187-0.846,17.912-2.787L-298.748-435.967z"/>
				<path fill="#62A5A2" d="M-370.563-651.062l-47.129-120.276c6.032-0.757,11.808-2.969,16.81-6.434l47.796,121.979
					C-359.156-655.235-365.071-653.628-370.563-651.062z"/>
				<path fill="#62A5A2" d="M-502.957-578.652c-0.202-6.172-1.931-12.179-4.975-17.502l107.502-13.95
					c-0.769,6.084-0.447,12.182,0.865,18.04L-502.957-578.652z"/>
				<path fill="#62A5A2" d="M-407.109-514.386c-2.496-2.588-5.495-4.778-8.949-6.394l31.788-44.457
					c2.645,2.479,5.572,4.712,8.771,6.638L-407.109-514.386z"/>
				<path fill="#62A5A2" d="M-328.435-652.088l26.696-48.323c2.088,1.807,4.454,3.359,7.085,4.569
					c0.796,0.375,1.606,0.686,2.416,0.98l-26.511,47.989c-2.377-1.612-4.905-3.066-7.601-4.308
					C-327.039-651.507-327.736-651.802-328.435-652.088z"/>
				<path fill="#62A5A2" d="M-158.69-629.822l-137.434,20.859c-0.637-6.068-2.323-11.983-4.971-17.443l139.202-21.137
					C-162.279-641.407-161.148-635.331-158.69-629.822z"/>
				<path fill="#62A5A2" d="M-299.825-583.474l48.405,36.426c-2.657,2.431-4.909,5.391-6.602,8.799l-47.111-35.46
					c1.68-2.437,3.183-5.038,4.464-7.82C-300.369-582.17-300.096-582.826-299.825-583.474z"/>
				<path fill="#62A5A2" d="M-434.11-663.055c2.697-2.405,5.001-5.338,6.74-8.727l44.001,29.165
					c-2.739,2.446-5.238,5.203-7.449,8.256L-434.11-663.055z"/>
				<path fill="#D09220" d="M-499.526-586.091c0.188,5.686-0.899,11.492-3.441,17.003c-8.714,18.893-31.091,27.135-49.981,18.426
					c-18.89-8.709-27.143-31.093-18.425-49.985c8.708-18.886,31.087-27.136,49.975-18.419c7.391,3.404,13.142,8.912,16.899,15.465
					C-501.456-598.271-499.728-592.263-499.526-586.091z"/>
				<path fill="#D09220" d="M-298.748-435.967c5.648-0.167,11.415,0.924,16.897,3.451c18.888,8.717,27.139,31.092,18.427,49.977
					c-8.714,18.893-31.093,27.143-49.983,18.434c-18.888-8.717-27.137-31.1-18.425-49.985c3.454-7.484,9.059-13.297,15.744-17.05
					C-310.809-434.102-304.851-435.775-298.748-435.967z"/>
				<path fill="#D09220" d="M-140.079-610.967c-8.621-3.982-15.024-10.808-18.611-18.855c-2.458-5.51-3.589-11.586-3.204-17.721
					c0.282-4.509,1.378-9.047,3.387-13.402c8.714-18.893,31.093-27.143,49.983-18.434c18.888,8.717,27.139,31.092,18.425,49.985
					C-98.81-610.508-121.191-602.25-140.079-610.967z"/>
				<path fill="#D09220" d="M-417.692-771.338c-6.751,0.849-13.813-0.11-20.442-3.172c-18.89-8.709-27.145-31.085-18.431-49.978
					c8.714-18.893,31.091-27.135,49.981-18.426c18.89,8.709,27.145,31.085,18.429,49.986c-2.921,6.327-7.38,11.451-12.727,15.156
					C-405.884-774.307-411.66-772.095-417.692-771.338z"/>
				<path fill="#D43D21" d="M-294.949-609.079c0.902,8.615-0.266,17.542-3.787,26.052c-0.275,0.664-0.554,1.327-0.858,1.993
					c-1.311,2.843-2.848,5.502-4.565,7.998c-6.692,9.721-16.239,16.708-26.949,20.343c-5.852,1.987-12.045,2.967-18.313,2.849
					c-7.182-0.145-14.454-1.724-21.397-4.93c-1.836-0.853-3.595-1.788-5.29-2.81c-3.271-1.975-6.262-4.263-8.965-6.797
					c-7.922-7.434-13.31-17.042-15.638-27.427c-1.341-5.989-1.675-12.223-0.884-18.444c0.671-5.314,2.156-10.616,4.517-15.743
					c1.5-3.251,3.287-6.272,5.306-9.059c2.262-3.117,4.822-5.943,7.621-8.451c3.941-3.522,8.362-6.423,13.089-8.633
					c5.615-2.614,11.666-4.258,17.873-4.827c8.348-0.765,16.974,0.404,25.202,3.792c0.715,0.29,1.428,0.588,2.134,0.918
					c2.756,1.271,5.344,2.755,7.771,4.403c7.92,5.393,14.051,12.659,18.047,20.929C-297.33-621.333-295.604-615.292-294.949-609.079
					z"/>
				<path fill="#E0DCD3" d="M-466.831-658.174c-15.128-6.976-21.737-24.903-14.759-40.022c6.977-15.136,24.9-21.742,40.032-14.766
					c15.128,6.976,21.733,24.902,14.758,40.03c-0.182,0.393-0.372,0.767-0.565,1.15c-1.739,3.39-4.044,6.322-6.744,8.727
					C-442.799-655.313-455.586-652.983-466.831-658.174z"/>
				<path fill="#E0DCD3" d="M-401.438-480.822c-6.981,15.135-24.904,21.741-40.03,14.758c-15.13-6.968-21.739-24.895-14.759-40.022
					c6.981-15.135,24.904-21.741,40.03-14.758c0.05,0.019,0.094,0.046,0.14,0.064c3.454,1.616,6.454,3.806,8.949,6.394
					C-398.74-505.689-396.08-492.433-401.438-480.822z"/>
				<path fill="#E0DCD3" d="M-218.388-552.202c15.13,6.968,21.739,24.895,14.763,40.023c-6.981,15.135-24.904,21.741-40.03,14.758
					c-15.128-6.976-21.737-24.903-14.763-40.023c0.126-0.272,0.265-0.541,0.397-0.804c1.693-3.408,3.946-6.369,6.602-8.799
					C-242.723-555.013-229.765-557.456-218.388-552.202z"/>
				<path fill="#E0DCD3" d="M-301.738-700.411c-9.922-8.564-13.438-22.964-7.674-35.453c6.981-15.135,24.904-21.741,40.032-14.766
					c15.128,6.976,21.737,24.903,14.758,40.03c-6.61,14.334-23.04,21.01-37.614,15.737c-0.811-0.286-1.62-0.605-2.416-0.98
					C-297.285-697.052-299.65-698.603-301.738-700.411z"/>
			</g>
		</g>
		<g>
			
				<g transform="matrix(0.11729688628039896 -0.02574809785325106 0.02574809785325106 0.11729688628039896 82.59192998211728 34.533637851576515)">
				<path fill="#62A5A2" d="M2547.961,188.913c-6.103,0.192-12.061,1.865-17.34,4.827l-33.312-119.882
					c6.132,0.114,12.187-0.847,17.912-2.787L2547.961,188.913z"/>
				<path fill="#62A5A2" d="M2476.147-26.181l-47.129-120.276c6.031-0.757,11.808-2.969,16.81-6.434l47.796,121.979
					C2487.553-30.355,2481.639-28.747,2476.147-26.181z"/>
				<path fill="#62A5A2" d="M2343.752,46.229c-0.202-6.172-1.931-12.179-4.975-17.502l107.502-13.95
					c-0.769,6.084-0.447,12.182,0.865,18.04L2343.752,46.229z"/>
				<path fill="#62A5A2" d="M2439.601,110.495c-2.496-2.588-5.495-4.778-8.949-6.394l31.788-44.457
					c2.645,2.479,5.572,4.712,8.771,6.638L2439.601,110.495z"/>
				<path fill="#62A5A2" d="M2518.274-27.208l26.697-48.323c2.088,1.807,4.454,3.359,7.085,4.569
					c0.796,0.375,1.606,0.686,2.416,0.98l-26.511,47.989c-2.377-1.612-4.905-3.067-7.601-4.308
					C2519.67-26.626,2518.973-26.921,2518.274-27.208z"/>
				<path fill="#62A5A2" d="M2688.019-4.941l-137.434,20.859c-0.637-6.068-2.323-11.983-4.971-17.443l139.201-21.137
					C2684.431-16.527,2685.561-10.451,2688.019-4.941z"/>
				<path fill="#62A5A2" d="M2546.885,41.406l48.406,36.426c-2.656,2.431-4.909,5.391-6.602,8.799l-47.111-35.46
					c1.68-2.437,3.183-5.038,4.464-7.82C2546.34,42.71,2546.613,42.054,2546.885,41.406z"/>
				<path fill="#62A5A2" d="M2412.599-38.174c2.697-2.405,5.001-5.338,6.74-8.728l44.001,29.165
					c-2.739,2.446-5.238,5.203-7.449,8.256L2412.599-38.174z"/>
				<path fill="#D09220" d="M2347.184,38.789c0.188,5.686-0.899,11.492-3.441,17.003c-8.714,18.893-31.091,27.135-49.981,18.426
					s-27.139-31.092-18.425-49.985c8.708-18.886,31.087-27.136,49.979-18.418c7.387,3.403,13.138,8.912,16.895,15.464
					C2345.253,26.61,2346.982,32.617,2347.184,38.789z"/>
				<path fill="#D09220" d="M2547.961,188.913c5.648-0.167,11.416,0.924,16.897,3.451c18.888,8.717,27.139,31.092,18.427,49.977
					c-8.714,18.893-31.093,27.143-49.983,18.434c-18.888-8.717-27.137-31.1-18.425-49.985c3.454-7.484,9.059-13.297,15.744-17.05
					C2535.9,190.778,2541.858,189.105,2547.961,188.913z"/>
				<path fill="#D09220" d="M2706.63,13.914c-8.625-3.983-15.024-10.808-18.611-18.855c-2.458-5.51-3.589-11.586-3.204-17.721
					c0.282-4.509,1.378-9.047,3.387-13.402c8.714-18.893,31.093-27.143,49.983-18.434c18.888,8.717,27.139,31.092,18.425,49.985
					C2747.899,14.373,2725.522,22.632,2706.63,13.914z"/>
				<path fill="#D09220" d="M2429.017-146.457c-6.751,0.849-13.813-0.11-20.442-3.172c-18.894-8.71-27.145-31.085-18.431-49.978
					c8.714-18.893,31.091-27.135,49.981-18.426c18.89,8.709,27.145,31.085,18.429,49.986c-2.921,6.327-7.38,11.451-12.727,15.156
					C2440.825-149.427,2435.049-147.215,2429.017-146.457z"/>
				<path fill="#D43D21" d="M2551.76,15.801c0.902,8.615-0.266,17.542-3.787,26.052c-0.275,0.664-0.554,1.327-0.858,1.993
					c-1.311,2.843-2.848,5.502-4.565,7.998c-6.692,9.721-16.239,16.708-26.949,20.343c-5.852,1.987-12.045,2.967-18.313,2.849
					c-7.182-0.145-14.454-1.724-21.397-4.93c-1.836-0.853-3.595-1.788-5.29-2.81c-3.271-1.975-6.262-4.263-8.965-6.797
					c-7.922-7.434-13.31-17.042-15.638-27.427c-1.341-5.989-1.675-12.223-0.885-18.444c0.671-5.314,2.156-10.616,4.517-15.743
					c1.5-3.251,3.287-6.272,5.306-9.059c2.262-3.117,4.822-5.943,7.62-8.451c3.941-3.522,8.362-6.423,13.093-8.632
					c5.611-2.615,11.662-4.259,17.869-4.828c8.348-0.765,16.975,0.404,25.202,3.792c0.715,0.29,1.428,0.588,2.134,0.918
					c2.756,1.271,5.344,2.755,7.771,4.403c7.92,5.393,14.051,12.659,18.051,20.93C2549.379,3.548,2551.105,9.588,2551.76,15.801z"/>
				<path fill="#E0DCD3" d="M2379.878-33.293c-15.128-6.976-21.737-24.903-14.759-40.022c6.978-15.136,24.9-21.742,40.032-14.766
					c15.128,6.976,21.733,24.902,14.758,40.03c-0.182,0.393-0.373,0.767-0.565,1.15c-1.739,3.39-4.044,6.322-6.744,8.727
					C2403.911-30.432,2391.123-28.102,2379.878-33.293z"/>
				<path fill="#E0DCD3" d="M2445.271,144.059c-6.978,15.136-24.904,21.741-40.03,14.758c-15.13-6.968-21.739-24.895-14.759-40.022
					c6.981-15.135,24.904-21.741,40.03-14.758c0.05,0.019,0.094,0.046,0.14,0.064c3.454,1.616,6.453,3.806,8.949,6.394
					C2447.969,119.192,2450.63,132.447,2445.271,144.059z"/>
				<path fill="#E0DCD3" d="M2628.321,72.678c15.13,6.968,21.739,24.895,14.763,40.023c-6.981,15.135-24.904,21.741-40.03,14.758
					c-15.128-6.976-21.737-24.903-14.763-40.023c0.126-0.272,0.265-0.541,0.397-0.804c1.693-3.408,3.946-6.369,6.602-8.799
					C2603.986,69.867,2616.944,67.425,2628.321,72.678z"/>
				<path fill="#E0DCD3" d="M2544.971-75.53c-9.922-8.564-13.438-22.964-7.674-35.453c6.981-15.135,24.904-21.741,40.032-14.766
					c15.128,6.976,21.737,24.903,14.758,40.03c-6.61,14.334-23.041,21.01-37.614,15.737c-0.811-0.286-1.62-0.605-2.416-0.98
					C2549.425-72.171,2547.059-73.723,2544.971-75.53z"/>
			</g>
		</g>
		<g>
			
				<g transform="matrix(0.11729688628039896 -0.02574809785325106 0.02574809785325106 0.11729688628039896 82.59192998211728 34.533637851576515)">
				<path fill="#62A5A2" d="M5394.675,813.799c-6.111,0.19-12.065,1.864-17.344,4.826l-33.312-119.882
					c6.127,0.113,12.191-0.846,17.912-2.787L5394.675,813.799z"/>
				<path fill="#62A5A2" d="M5322.852,598.702l-47.129-120.276c6.036-0.757,11.808-2.969,16.814-6.433l47.796,121.979
					C5334.266,594.531,5328.344,596.136,5322.852,598.702z"/>
				<path fill="#62A5A2" d="M5190.466,671.114c-0.21-6.174-1.938-12.181-4.975-17.502l107.498-13.951
					c-0.769,6.084-0.443,12.183,0.869,18.041L5190.466,671.114z"/>
				<path fill="#62A5A2" d="M5286.314,735.38c-2.503-2.589-5.503-4.78-8.953-6.395l31.788-44.457
					c2.645,2.479,5.568,4.711,8.775,6.638L5286.314,735.38z"/>
				<path fill="#62A5A2" d="M5364.988,597.678l26.692-48.323c2.092,1.808,4.458,3.36,7.089,4.57c0.792,0.374,1.606,0.686,2.416,0.98
					l-26.519,47.987c-2.369-1.611-4.905-3.067-7.597-4.307C5366.376,598.257,5365.683,597.964,5364.988,597.678z"/>
				<path fill="#62A5A2" d="M5534.729,619.943l-137.43,20.86c-0.641-6.068-2.332-11.984-4.979-17.444l139.206-21.136
					C5531.136,608.357,5532.275,614.434,5534.729,619.943z"/>
				<path fill="#62A5A2" d="M5393.594,666.291l48.41,36.427c-2.657,2.431-4.913,5.39-6.61,8.798l-47.106-35.459
					c1.675-2.438,3.187-5.037,4.464-7.82C5393.05,667.595,5393.327,666.94,5393.594,666.291z"/>
				<path fill="#62A5A2" d="M5259.305,586.709c2.701-2.404,5.009-5.336,6.745-8.727l44,29.165c-2.735,2.447-5.238,5.203-7.449,8.256
					L5259.305,586.709z"/>
				<path fill="#D09220" d="M5193.897,663.675c0.184,5.685-0.899,11.492-3.449,17.001c-8.71,18.894-31.083,27.137-49.977,18.427
					c-18.894-8.71-27.143-31.093-18.425-49.985c8.708-18.886,31.091-27.135,49.975-18.419c7.395,3.405,13.146,8.913,16.903,15.466
					C5191.966,651.495,5193.687,657.501,5193.897,663.675z"/>
				<path fill="#D09220" d="M5394.675,813.799c5.64-0.169,11.412,0.923,16.893,3.45c18.884,8.716,27.143,31.093,18.427,49.977
					c-8.71,18.894-31.093,27.143-49.979,18.435c-18.892-8.718-27.141-31.101-18.433-49.987c3.458-7.483,9.063-13.296,15.748-17.049
					C5382.61,815.663,5388.563,813.989,5394.675,813.799z"/>
				<path fill="#D09220" d="M5553.343,638.799c-8.625-3.983-15.028-10.808-18.615-18.856c-2.454-5.509-3.592-11.587-3.204-17.721
					c0.282-4.509,1.378-9.047,3.383-13.402c8.718-18.892,31.093-27.143,49.987-18.433c18.892,8.718,27.143,31.093,18.425,49.985
					C5594.612,639.258,5572.228,647.515,5553.343,638.799z"/>
				<path fill="#D09220" d="M5275.723,478.426c-6.747,0.85-13.805-0.108-20.442-3.172c-18.886-8.708-27.137-31.083-18.427-49.977
					c8.717-18.892,31.091-27.135,49.985-18.425c18.886,8.708,27.137,31.083,18.425,49.985c-2.921,6.327-7.384,11.45-12.727,15.156
					C5287.539,475.458,5281.758,477.67,5275.723,478.426z"/>
				<path fill="#D43D21" d="M5398.465,640.685c0.906,8.616-0.262,17.543-3.779,26.054c-0.279,0.663-0.558,1.326-0.862,1.992
					c-1.315,2.842-2.848,5.502-4.569,7.997c-6.688,9.721-16.231,16.71-26.945,20.344c-5.856,1.987-12.049,2.967-18.317,2.848
					c-7.178-0.144-14.45-1.723-21.397-4.93c-1.828-0.851-3.595-1.788-5.286-2.809c-3.271-1.975-6.266-4.264-8.965-6.797
					c-7.926-7.434-13.31-17.042-15.643-27.428c-1.341-5.989-1.671-12.222-0.88-18.443c0.675-5.313,2.156-10.616,4.521-15.742
					c1.496-3.252,3.283-6.273,5.302-9.06c2.258-3.118,4.818-5.944,7.617-8.452c3.945-3.522,8.362-6.423,13.093-8.632
					c5.619-2.613,11.666-4.258,17.877-4.826c8.344-0.766,16.97,0.403,25.202,3.792c0.71,0.289,1.419,0.586,2.129,0.917
					c2.76,1.272,5.348,2.756,7.775,4.404c7.916,5.393,14.047,12.658,18.043,20.928
					C5396.093,628.433,5397.814,634.473,5398.465,640.685z"/>
				<path fill="#E0DCD3" d="M5226.587,591.591c-15.128-6.976-21.733-24.902-14.759-40.022c6.978-15.136,24.904-21.741,40.032-14.766
					c15.128,6.976,21.733,24.902,14.757,40.03c-0.178,0.394-0.369,0.768-0.568,1.149c-1.735,3.391-4.044,6.322-6.737,8.728
					C5250.62,594.452,5237.829,596.781,5226.587,591.591z"/>
				<path fill="#E0DCD3" d="M5291.984,768.944c-6.985,15.134-24.904,21.741-40.03,14.758c-15.13-6.968-21.743-24.896-14.767-40.024
					c6.985-15.134,24.903-21.741,40.03-14.758c0.054,0.02,0.098,0.047,0.144,0.065c3.45,1.615,6.45,3.805,8.953,6.395
					C5294.679,744.076,5297.339,757.332,5291.984,768.944z"/>
				<path fill="#E0DCD3" d="M5475.03,697.563c15.13,6.968,21.743,24.896,14.759,40.022c-6.978,15.136-24.904,21.741-40.03,14.758
					c-15.128-6.976-21.733-24.902-14.759-40.022c0.126-0.272,0.269-0.54,0.393-0.805c1.697-3.407,3.954-6.367,6.61-8.798
					C5450.695,694.752,5463.653,692.309,5475.03,697.563z"/>
				<path fill="#E0DCD3" d="M5391.68,549.354c-9.926-8.564-13.434-22.963-7.67-35.452c6.978-15.136,24.896-21.743,40.032-14.766
					c15.128,6.976,21.733,24.902,14.757,40.03c-6.618,14.333-23.044,21.009-37.614,15.737c-0.811-0.286-1.624-0.606-2.416-0.98
					C5396.138,552.714,5393.772,551.162,5391.68,549.354z"/>
			</g>
		</g>
		<g>
			
				<g transform="matrix(0.11729688628039896 -0.02574809785325106 0.02574809785325106 0.11729688628039896 82.59192998211728 34.533637851576515)">
				<path fill="#62A5A2" d="M326.136-3282.677c-6.102,0.188-12.059,1.857-17.339,4.823l-33.311-119.886
					c6.13,0.122,12.186-0.843,17.911-2.783L326.136-3282.677z"/>
				<path fill="#62A5A2" d="M254.322-3497.775l-47.129-120.276c6.032-0.757,11.808-2.969,16.81-6.434l47.796,121.979
					C265.728-3501.948,259.814-3500.341,254.322-3497.775z"/>
				<path fill="#62A5A2" d="M121.927-3425.361c-0.202-6.172-1.929-12.188-4.974-17.506l107.502-13.95
					c-0.77,6.088-0.448,12.186,0.865,18.04L121.927-3425.361z"/>
				<path fill="#62A5A2" d="M217.775-3361.095c-2.495-2.592-5.494-4.782-8.948-6.398l31.789-44.461
					c2.644,2.483,5.571,4.716,8.769,6.646L217.775-3361.095z"/>
				<path fill="#62A5A2" d="M296.449-3498.797l26.696-48.323c2.089,1.803,4.455,3.355,7.086,4.565
					c0.797,0.371,1.605,0.689,2.415,0.984l-26.51,47.985c-2.376-1.616-4.904-3.071-7.6-4.312
					C297.845-3498.22,297.147-3498.511,296.449-3498.797z"/>
				<path fill="#62A5A2" d="M466.194-3476.535l-137.435,20.863c-0.636-6.072-2.323-11.982-4.97-17.45l139.201-21.133
					C462.607-3488.125,463.736-3482.045,466.194-3476.535z"/>
				<path fill="#62A5A2" d="M325.06-3430.188l48.405,36.427c-2.657,2.435-4.909,5.391-6.602,8.8l-47.112-35.456
					c1.681-2.441,3.184-5.042,4.465-7.824C324.516-3428.887,324.788-3429.54,325.06-3430.188z"/>
				<path fill="#62A5A2" d="M190.774-3509.768c2.697-2.405,5.001-5.338,6.74-8.728l44.002,29.162
					c-2.74,2.45-5.239,5.207-7.449,8.256L190.774-3509.768z"/>
				<path fill="#D09220" d="M125.359-3432.804c0.189,5.682-0.898,11.488-3.441,17.003c-8.713,18.889-31.092,27.139-49.981,18.426
					s-27.143-31.093-18.426-49.981c8.709-18.89,31.088-27.14,49.977-18.427c7.39,3.408,13.142,8.913,16.897,15.473
					C123.429-3444.988,125.157-3438.976,125.359-3432.804z"/>
				<path fill="#D09220" d="M326.136-3282.677c5.649-0.171,11.416,0.92,16.898,3.447c18.889,8.713,27.14,31.088,18.426,49.981
					c-8.713,18.889-31.092,27.139-49.981,18.426s-27.139-31.092-18.426-49.981c3.455-7.488,9.06-13.301,15.744-17.05
					C314.076-3280.82,320.033-3282.489,326.136-3282.677z"/>
				<path fill="#D09220" d="M484.805-3457.68c-8.622-3.978-15.024-10.808-18.611-18.855c-2.457-5.514-3.588-11.59-3.203-17.721
					c0.283-4.513,1.379-9.051,3.388-13.406c8.713-18.889,31.092-27.139,49.981-18.426c18.889,8.713,27.14,31.088,18.426,49.981
					C526.073-3457.217,503.694-3448.967,484.805-3457.68z"/>
				<path fill="#D09220" d="M207.192-3618.051c-6.752,0.853-13.813-0.11-20.443-3.168c-18.889-8.713-27.144-31.089-18.43-49.982
					c8.713-18.889,31.092-27.139,49.981-18.426c18.889,8.713,27.144,31.089,18.43,49.982c-2.922,6.331-7.382,11.459-12.727,15.16
					C219-3621.021,213.224-3618.809,207.192-3618.051z"/>
				<path fill="#D43D21" d="M329.935-3455.792c0.903,8.611-0.266,17.542-3.787,26.052c-0.275,0.664-0.554,1.331-0.858,1.993
					c-1.311,2.843-2.849,5.507-4.565,7.998c-6.692,9.721-16.239,16.708-26.949,20.343c-5.851,1.983-12.045,2.968-18.312,2.845
					c-7.183-0.141-14.454-1.724-21.398-4.926c-1.837-0.849-3.595-1.792-5.289-2.814c-3.272-1.971-6.262-4.259-8.965-6.797
					c-7.922-7.434-13.31-17.042-15.639-27.423c-1.342-5.985-1.676-12.219-0.884-18.444c0.671-5.314,2.156-10.621,4.518-15.747
					c1.499-3.247,3.287-6.268,5.306-9.059c2.262-3.117,4.82-5.935,7.619-8.443c3.942-3.526,8.362-6.423,13.089-8.633
					c5.616-2.618,11.667-4.262,17.874-4.831c8.348-0.765,16.974,0.408,25.202,3.788c0.714,0.294,1.427,0.592,2.134,0.918
					c2.756,1.271,5.343,2.759,7.769,4.411c7.921,5.389,14.051,12.659,18.049,20.921
					C327.555-3468.046,329.279-3462.002,329.935-3455.792z"/>
				<path fill="#E0DCD3" d="M158.053-3504.883c-15.127-6.98-21.737-24.903-14.758-40.03c6.977-15.132,24.899-21.738,40.031-14.761
					c15.127,6.98,21.733,24.902,14.758,40.03c-0.181,0.389-0.373,0.771-0.565,1.15c-1.739,3.39-4.044,6.322-6.744,8.727
					C182.085-3502.022,169.298-3499.696,158.053-3504.883z"/>
				<path fill="#E0DCD3" d="M223.445-3327.531c-6.981,15.131-24.903,21.737-40.03,14.758c-15.128-6.976-21.738-24.899-14.758-40.03
					c6.98-15.127,24.902-21.733,40.03-14.758c0.049,0.023,0.093,0.05,0.139,0.068c3.454,1.616,6.454,3.806,8.948,6.398
					C226.146-3352.406,228.805-3339.146,223.445-3327.531z"/>
				<path fill="#E0DCD3" d="M406.497-3398.92c15.128,6.976,21.738,24.899,14.762,40.031c-6.98,15.127-24.902,21.733-40.03,14.758
					c-15.127-6.98-21.737-24.903-14.762-40.031c0.126-0.272,0.263-0.533,0.396-0.8c1.693-3.408,3.945-6.365,6.602-8.8
					C382.162-3401.73,395.119-3404.169,406.497-3398.92z"/>
				<path fill="#E0DCD3" d="M323.145-3547.12c-9.922-8.564-13.438-22.964-7.672-35.461c6.981-15.131,24.903-21.737,40.03-14.758
					c15.128,6.976,21.738,24.899,14.758,40.026c-6.61,14.334-23.04,21.01-37.615,15.741c-0.81-0.29-1.618-0.613-2.416-0.98
					C327.6-3543.765,325.234-3545.317,323.145-3547.12z"/>
			</g>
		</g>
		<g>
			
				<g transform="matrix(0.11729688628039896 -0.02574809785325106 0.02574809785325106 0.11729688628039896 82.59192998211728 34.533637851576515)">
				<path fill="#62A5A2" d="M3172.845-2657.792c-6.102,0.188-12.059,1.857-17.339,4.823l-33.311-119.886
					c6.13,0.122,12.186-0.843,17.911-2.783L3172.845-2657.792z"/>
				<path fill="#62A5A2" d="M3101.031-2872.891l-47.129-120.276c6.032-0.757,11.808-2.969,16.811-6.434l47.796,121.979
					C3112.437-2877.064,3106.523-2875.457,3101.031-2872.891z"/>
				<path fill="#62A5A2" d="M2968.636-2800.477c-0.202-6.172-1.929-12.188-4.974-17.506l107.502-13.95
					c-0.77,6.088-0.448,12.186,0.865,18.04L2968.636-2800.477z"/>
				<path fill="#62A5A2" d="M3064.484-2736.211c-2.495-2.592-5.494-4.782-8.948-6.398l31.789-44.461
					c2.644,2.483,5.571,4.716,8.769,6.646L3064.484-2736.211z"/>
				<path fill="#62A5A2" d="M3143.158-2873.913l26.697-48.323c2.089,1.803,4.455,3.355,7.086,4.565
					c0.797,0.371,1.605,0.689,2.415,0.984l-26.51,47.985c-2.376-1.616-4.904-3.071-7.6-4.312
					C3144.555-2873.336,3143.857-2873.626,3143.158-2873.913z"/>
				<path fill="#62A5A2" d="M3312.904-2851.65l-137.435,20.863c-0.636-6.072-2.323-11.983-4.969-17.45l139.201-21.133
					C3309.316-2863.24,3310.446-2857.16,3312.904-2851.65z"/>
				<path fill="#62A5A2" d="M3171.769-2805.303l48.406,36.427c-2.657,2.435-4.909,5.391-6.602,8.799l-47.112-35.456
					c1.681-2.441,3.184-5.042,4.465-7.824C3171.226-2804.003,3171.498-2804.655,3171.769-2805.303z"/>
				<path fill="#62A5A2" d="M3037.484-2884.884c2.697-2.405,5.001-5.338,6.74-8.728l44.001,29.162
					c-2.74,2.45-5.239,5.206-7.448,8.256L3037.484-2884.884z"/>
				<path fill="#D09220" d="M2972.068-2807.92c0.189,5.682-0.898,11.488-3.441,17.003c-8.713,18.889-31.092,27.139-49.981,18.426
					c-18.889-8.713-27.139-31.092-18.426-49.981c8.709-18.89,31.088-27.14,49.981-18.426c7.386,3.407,13.138,8.912,16.893,15.472
					C2970.138-2820.104,2971.866-2814.092,2972.068-2807.92z"/>
				<path fill="#D09220" d="M3172.845-2657.792c5.649-0.171,11.416,0.92,16.898,3.447c18.889,8.713,27.14,31.088,18.426,49.981
					c-8.713,18.889-31.092,27.139-49.981,18.426c-18.889-8.713-27.139-31.092-18.426-49.981c3.455-7.488,9.06-13.301,15.744-17.05
					C3160.786-2655.935,3166.743-2657.604,3172.845-2657.792z"/>
				<path fill="#D09220" d="M3331.514-2832.795c-8.626-3.979-15.024-10.808-18.611-18.855c-2.457-5.514-3.588-11.59-3.204-17.72
					c0.283-4.513,1.379-9.051,3.388-13.406c8.713-18.889,31.092-27.139,49.981-18.426s27.14,31.088,18.426,49.981
					C3372.782-2832.333,3350.407-2824.082,3331.514-2832.795z"/>
				<path fill="#D09220" d="M3053.902-2993.167c-6.752,0.853-13.813-0.11-20.443-3.168c-18.893-8.714-27.144-31.089-18.43-49.982
					c8.713-18.889,31.092-27.139,49.981-18.426c18.889,8.713,27.144,31.089,18.43,49.982c-2.922,6.331-7.382,11.459-12.727,15.16
					C3065.71-2996.136,3059.933-2993.924,3053.902-2993.167z"/>
				<path fill="#D43D21" d="M3176.645-2830.908c0.903,8.611-0.267,17.542-3.787,26.052c-0.275,0.664-0.554,1.331-0.858,1.993
					c-1.311,2.843-2.849,5.507-4.566,7.998c-6.692,9.721-16.239,16.708-26.949,20.343c-5.851,1.983-12.045,2.968-18.312,2.845
					c-7.183-0.141-14.453-1.724-21.398-4.926c-1.837-0.849-3.594-1.792-5.289-2.814c-3.272-1.971-6.262-4.26-8.965-6.797
					c-7.922-7.434-13.31-17.042-15.639-27.423c-1.342-5.985-1.676-12.219-0.884-18.444c0.671-5.314,2.156-10.62,4.518-15.747
					c1.5-3.247,3.287-6.268,5.306-9.059c2.262-3.117,4.82-5.935,7.619-8.443c3.942-3.526,8.362-6.423,13.093-8.632
					c5.612-2.619,11.663-4.263,17.87-4.832c8.348-0.765,16.974,0.408,25.203,3.788c0.714,0.294,1.427,0.592,2.134,0.918
					c2.756,1.271,5.343,2.759,7.769,4.411c7.921,5.39,14.051,12.659,18.053,20.922
					C3174.264-2843.161,3175.989-2837.117,3176.645-2830.908z"/>
				<path fill="#E0DCD3" d="M3004.762-2879.999c-15.127-6.979-21.737-24.903-14.758-40.03c6.977-15.132,24.899-21.738,40.031-14.761
					c15.127,6.979,21.733,24.902,14.758,40.03c-0.181,0.389-0.373,0.771-0.564,1.15c-1.739,3.39-4.044,6.322-6.744,8.727
					C3028.794-2877.137,3016.008-2874.812,3004.762-2879.999z"/>
				<path fill="#E0DCD3" d="M3070.155-2702.646c-6.977,15.132-24.903,21.737-40.03,14.758c-15.128-6.976-21.738-24.899-14.758-40.03
					c6.98-15.127,24.902-21.733,40.03-14.758c0.049,0.023,0.093,0.05,0.139,0.068c3.454,1.616,6.454,3.806,8.948,6.398
					C3072.855-2727.521,3075.514-2714.262,3070.155-2702.646z"/>
				<path fill="#E0DCD3" d="M3253.206-2774.035c15.128,6.976,21.738,24.899,14.761,40.031c-6.98,15.127-24.902,21.733-40.03,14.758
					c-15.127-6.98-21.737-24.903-14.762-40.031c0.126-0.272,0.263-0.533,0.396-0.8c1.693-3.408,3.945-6.365,6.602-8.799
					C3228.872-2776.846,3241.829-2779.284,3253.206-2774.035z"/>
				<path fill="#E0DCD3" d="M3169.854-2922.235c-9.922-8.564-13.438-22.964-7.672-35.461c6.98-15.131,24.903-21.737,40.03-14.758
					c15.128,6.976,21.738,24.899,14.759,40.026c-6.61,14.334-23.041,21.01-37.615,15.741c-0.81-0.29-1.618-0.613-2.416-0.98
					C3174.309-2918.881,3171.944-2920.432,3169.854-2922.235z"/>
			</g>
		</g>
		<g>
			
				<g transform="matrix(0.11729688628039896 -0.02574809785325106 0.02574809785325106 0.11729688628039896 82.59192998211728 34.533637851576515)">
				<path fill="#62A5A2" d="M6019.558-2032.907c-6.11,0.187-12.063,1.856-17.343,4.822l-33.311-119.886
					c6.126,0.121,12.19-0.842,17.911-2.783L6019.558-2032.907z"/>
				<path fill="#62A5A2" d="M5947.736-2248.007l-47.129-120.276c6.036-0.756,11.808-2.969,16.814-6.433l47.796,121.979
					C5959.151-2252.179,5953.229-2250.573,5947.736-2248.007z"/>
				<path fill="#62A5A2" d="M5815.349-2175.592c-0.21-6.174-1.937-12.189-4.974-17.506l107.499-13.951
					c-0.771,6.087-0.444,12.187,0.869,18.041L5815.349-2175.592z"/>
				<path fill="#62A5A2" d="M5911.198-2111.325c-2.503-2.593-5.502-4.784-8.953-6.398l31.79-44.461
					c2.644,2.483,5.567,4.715,8.773,6.646L5911.198-2111.325z"/>
				<path fill="#62A5A2" d="M5989.871-2249.028l26.693-48.323c2.093,1.804,4.458,3.356,7.09,4.566
					c0.793,0.37,1.605,0.689,2.415,0.984l-26.518,47.983c-2.368-1.615-4.904-3.071-7.596-4.311
					C5991.26-2248.452,5990.566-2248.742,5989.871-2249.028z"/>
				<path fill="#62A5A2" d="M6159.613-2226.766l-137.431,20.864c-0.64-6.073-2.331-11.984-4.977-17.452l139.205-21.132
					C6156.021-2238.357,6157.159-2232.275,6159.613-2226.766z"/>
				<path fill="#62A5A2" d="M6018.479-2180.419l48.409,36.427c-2.657,2.435-4.913,5.39-6.61,8.798l-47.108-35.455
					c1.677-2.442,3.188-5.041,4.465-7.824C6017.935-2179.119,6018.211-2179.77,6018.479-2180.419z"/>
				<path fill="#62A5A2" d="M5884.189-2260c2.701-2.404,5.01-5.336,6.745-8.727l44.001,29.161c-2.736,2.451-5.239,5.207-7.448,8.256
					L5884.189-2260z"/>
				<path fill="#D09220" d="M5818.781-2183.035c0.185,5.681-0.898,11.488-3.449,17.001c-8.709,18.89-31.084,27.141-49.977,18.427
					c-18.893-8.714-27.143-31.093-18.426-49.981c8.709-18.89,31.092-27.139,49.977-18.427c7.394,3.409,13.146,8.914,16.901,15.474
					C5816.852-2195.218,5818.571-2189.208,5818.781-2183.035z"/>
				<path fill="#D09220" d="M6019.558-2032.907c5.641-0.173,11.413,0.919,16.894,3.446c18.885,8.712,27.144,31.089,18.426,49.981
					c-8.708,18.89-31.092,27.139-49.977,18.427c-18.893-8.714-27.143-31.093-18.434-49.983c3.458-7.487,9.063-13.3,15.748-17.049
					C6007.495-2031.051,6013.448-2032.72,6019.558-2032.907z"/>
				<path fill="#D09220" d="M6178.228-2207.91c-8.626-3.979-15.028-10.808-18.615-18.856c-2.453-5.513-3.592-11.591-3.204-17.721
					c0.283-4.513,1.379-9.051,3.384-13.406c8.717-18.888,31.092-27.139,49.985-18.425c18.893,8.714,27.144,31.089,18.426,49.981
					C6219.496-2207.448,6197.113-2199.198,6178.228-2207.91z"/>
				<path fill="#D09220" d="M5900.607-2368.283c-6.748,0.854-13.805-0.108-20.443-3.168c-18.885-8.712-27.136-31.087-18.426-49.981
					c8.717-18.888,31.092-27.139,49.985-18.425c18.885,8.712,27.136,31.087,18.426,49.981c-2.922,6.331-7.386,11.458-12.728,15.16
					C5912.423-2371.251,5906.643-2369.04,5900.607-2368.283z"/>
				<path fill="#D43D21" d="M6023.35-2206.024c0.907,8.612-0.263,17.542-3.779,26.053c-0.279,0.663-0.559,1.33-0.862,1.992
					c-1.315,2.842-2.849,5.506-4.57,7.997c-6.688,9.721-16.231,16.71-26.945,20.344c-5.855,1.982-12.049,2.967-18.316,2.844
					c-7.179-0.14-14.449-1.723-21.397-4.926c-1.829-0.847-3.595-1.792-5.286-2.813c-3.272-1.971-6.266-4.26-8.965-6.797
					c-7.926-7.435-13.31-17.042-15.643-27.424c-1.342-5.985-1.672-12.219-0.88-18.443c0.675-5.313,2.156-10.62,4.522-15.746
					c1.496-3.248,3.283-6.269,5.302-9.06c2.258-3.118,4.816-5.936,7.615-8.444c3.946-3.525,8.362-6.423,13.093-8.632
					c5.62-2.617,11.667-4.262,17.878-4.83c8.344-0.766,16.97,0.407,25.203,3.788c0.71,0.293,1.419,0.59,2.13,0.917
					c2.759,1.272,5.347,2.76,7.773,4.412c7.917,5.389,14.047,12.658,18.045,20.92
					C6020.977-2218.276,6022.698-2212.233,6023.35-2206.024z"/>
				<path fill="#E0DCD3" d="M5851.471-2255.114c-15.127-6.98-21.733-24.902-14.758-40.03c6.977-15.132,24.903-21.737,40.031-14.762
					c15.127,6.98,21.733,24.902,14.757,40.03c-0.177,0.39-0.369,0.772-0.568,1.149c-1.735,3.391-4.043,6.322-6.736,8.728
					C5875.503-2252.253,5862.713-2249.928,5851.471-2255.114z"/>
				<path fill="#E0DCD3" d="M5916.868-2077.761c-6.984,15.13-24.903,21.737-40.03,14.758c-15.128-6.976-21.742-24.9-14.766-40.032
					c6.983-15.126,24.902-21.733,40.03-14.758c0.053,0.024,0.097,0.051,0.143,0.069c3.451,1.615,6.45,3.805,8.953,6.398
					C5919.564-2102.637,5922.224-2089.378,5916.868-2077.761z"/>
				<path fill="#E0DCD3" d="M6099.916-2149.151c15.128,6.976,21.742,24.9,14.758,40.03c-6.976,15.128-24.902,21.733-40.03,14.758
					c-15.127-6.98-21.733-24.902-14.758-40.03c0.126-0.272,0.267-0.533,0.393-0.801c1.697-3.407,3.953-6.363,6.61-8.798
					C6075.581-2151.961,6088.538-2154.4,6099.916-2149.151z"/>
				<path fill="#E0DCD3" d="M6016.564-2297.351c-9.926-8.564-13.434-22.963-7.668-35.46c6.977-15.132,24.895-21.739,40.03-14.758
					c15.128,6.976,21.734,24.898,14.759,40.026c-6.618,14.333-23.044,21.009-37.615,15.741c-0.811-0.29-1.622-0.614-2.416-0.98
					C6021.022-2293.995,6018.657-2295.547,6016.564-2297.351z"/>
			</g>
		</g>
		<g>
			
				<g transform="matrix(0.11729688628039896 -0.02574809785325106 0.02574809785325106 0.11729688628039896 82.59192998211728 34.533637851576515)">
				<path fill="#62A5A2" d="M951.02-6129.386c-6.102,0.188-12.059,1.857-17.339,4.823l-33.31-119.89
					c6.13,0.122,12.185-0.839,17.91-2.779L951.02-6129.386z"/>
				<path fill="#62A5A2" d="M879.206-6344.484l-47.129-120.276c6.032-0.757,11.808-2.969,16.81-6.434l47.796,121.979
					C890.612-6348.658,884.698-6347.05,879.206-6344.484z"/>
				<path fill="#62A5A2" d="M746.812-6272.075c-0.202-6.172-1.93-12.179-4.975-17.501l107.502-13.951
					c-0.771,6.092-0.449,12.19,0.865,18.04L746.812-6272.075z"/>
				<path fill="#62A5A2" d="M842.66-6207.805c-2.495-2.591-5.494-4.782-8.948-6.397l31.79-44.465
					c2.643,2.487,5.57,4.719,8.769,6.646L842.66-6207.805z"/>
				<path fill="#62A5A2" d="M921.334-6345.511l26.696-48.322c2.088,1.807,4.454,3.358,7.085,4.569
					c0.798,0.367,1.604,0.694,2.414,0.988l-26.509,47.981c-2.375-1.621-4.905-3.067-7.599-4.316
					C922.73-6344.93,922.033-6345.224,921.334-6345.511z"/>
				<path fill="#62A5A2" d="M1091.079-6323.244l-137.434,20.859c-0.637-6.067-2.325-11.975-4.969-17.45l139.2-21.129
					C1087.492-6334.838,1088.621-6328.754,1091.079-6323.244z"/>
				<path fill="#62A5A2" d="M949.944-6276.897l48.405,36.426c-2.658,2.439-4.909,5.392-6.602,8.8l-47.113-35.452
					c1.681-2.445,3.185-5.046,4.466-7.828C949.4-6275.593,949.673-6276.249,949.944-6276.897z"/>
				<path fill="#62A5A2" d="M815.659-6356.478c2.697-2.405,5.001-5.337,6.74-8.728l44.003,29.158c-2.741,2.454-5.24,5.21-7.45,8.264
					L815.659-6356.478z"/>
				<path fill="#D09220" d="M750.243-6279.514c0.188,5.686-0.899,11.492-3.441,17.003c-8.713,18.889-31.092,27.139-49.981,18.426
					c-18.889-8.713-27.143-31.093-18.425-49.985c8.708-18.886,31.087-27.136,49.977-18.427c7.389,3.412,13.142,8.913,16.895,15.481
					C748.314-6291.701,750.041-6285.686,750.243-6279.514z"/>
				<path fill="#D09220" d="M951.02-6129.386c5.649-0.171,11.416,0.92,16.898,3.447c18.889,8.713,27.14,31.088,18.426,49.981
					c-8.713,18.889-31.092,27.139-49.981,18.426c-18.889-8.713-27.139-31.092-18.426-49.981c3.455-7.488,9.06-13.301,15.744-17.05
					C938.961-6127.529,944.918-6129.198,951.02-6129.386z"/>
				<path fill="#D09220" d="M1109.69-6304.389c-8.623-3.975-15.024-10.808-18.611-18.855c-2.458-5.51-3.587-11.594-3.203-17.721
					c0.284-4.517,1.38-9.055,3.387-13.401c8.714-18.893,31.093-27.143,49.981-18.426c18.89,8.709,27.141,31.084,18.427,49.977
					C1150.957-6303.923,1128.578-6295.672,1109.69-6304.389z"/>
				<path fill="#D09220" d="M832.077-6464.761c-6.751,0.85-13.813-0.109-20.442-3.172c-18.89-8.708-27.145-31.085-18.431-49.978
					c8.714-18.893,31.093-27.143,49.981-18.426c18.89,8.709,27.143,31.093,18.431,49.978c-2.923,6.335-7.383,11.467-12.728,15.164
					C843.885-6467.73,838.108-6465.518,832.077-6464.761z"/>
				<path fill="#D43D21" d="M954.82-6302.502c0.904,8.607-0.266,17.542-3.787,26.052c-0.275,0.664-0.555,1.335-0.858,1.993
					c-1.311,2.843-2.848,5.502-4.565,7.998c-6.692,9.721-16.239,16.708-26.949,20.343c-5.852,1.987-12.045,2.968-18.311,2.841
					c-7.184-0.137-14.455-1.716-21.399-4.922c-1.838-0.845-3.594-1.796-5.29-2.81c-3.271-1.976-6.262-4.264-8.965-6.797
					c-7.92-7.441-13.31-17.042-15.638-27.427c-1.343-5.981-1.675-12.223-0.884-18.443c0.671-5.314,2.157-10.625,4.517-15.743
					c1.5-3.25,3.287-6.271,5.306-9.059c2.262-3.117,4.822-5.943,7.619-8.443c3.943-3.53,8.362-6.423,13.089-8.633
					c5.617-2.622,11.668-4.266,17.875-4.835c8.348-0.765,16.973,0.412,25.202,3.792c0.715,0.291,1.428,0.588,2.134,0.918
					c2.756,1.271,5.344,2.755,7.771,4.403c7.92,5.394,14.05,12.667,18.047,20.929
					C952.439-6314.755,954.164-6308.715,954.82-6302.502z"/>
				<path fill="#E0DCD3" d="M782.938-6351.596c-15.128-6.976-21.739-24.895-14.758-40.03c6.976-15.128,24.898-21.734,40.03-14.757
					c15.128,6.976,21.733,24.902,14.758,40.03c-0.182,0.393-0.372,0.768-0.565,1.15c-1.739,3.39-4.044,6.322-6.744,8.727
					C806.968-6348.728,794.183-6346.405,782.938-6351.596z"/>
				<path fill="#E0DCD3" d="M848.33-6174.24c-6.98,15.127-24.903,21.737-40.03,14.758c-15.128-6.976-21.738-24.899-14.758-40.03
					c6.98-15.127,24.902-21.733,40.03-14.757c0.049,0.023,0.093,0.049,0.139,0.068c3.454,1.616,6.454,3.806,8.948,6.397
					C851.03-6199.115,853.689-6185.856,848.33-6174.24z"/>
				<path fill="#E0DCD3" d="M1031.382-6245.633c15.126,6.983,21.737,24.903,14.762,40.031
					c-6.981,15.131-24.903,21.737-40.031,14.762c-15.127-6.98-21.738-24.899-14.761-40.035c0.125-0.264,0.263-0.533,0.395-0.795
					c1.693-3.408,3.944-6.361,6.602-8.8C1007.046-6248.436,1020.004-6250.878,1031.382-6245.633z"/>
				<path fill="#E0DCD3" d="M948.029-6393.825c-9.92-8.572-13.438-22.964-7.671-35.469c6.98-15.127,24.902-21.733,40.03-14.758
					c15.126,6.983,21.737,24.903,14.758,40.03c-6.61,14.334-23.04,21.009-37.616,15.745c-0.81-0.294-1.616-0.621-2.414-0.988
					C952.484-6390.475,950.119-6392.026,948.029-6393.825z"/>
			</g>
		</g>
		<g>
			
				<g transform="matrix(0.11729688628039896 -0.02574809785325106 0.02574809785325106 0.11729688628039896 82.59192998211728 34.533637851576515)">
				<path fill="#62A5A2" d="M3797.729-5504.501c-6.102,0.188-12.059,1.857-17.339,4.823l-33.311-119.89
					c6.13,0.122,12.186-0.838,17.911-2.779L3797.729-5504.501z"/>
				<path fill="#62A5A2" d="M3725.916-5719.6l-47.129-120.276c6.032-0.757,11.808-2.97,16.811-6.434l47.796,121.979
					C3737.322-5723.773,3731.407-5722.166,3725.916-5719.6z"/>
				<path fill="#62A5A2" d="M3593.521-5647.19c-0.202-6.172-1.93-12.179-4.975-17.501l107.502-13.95
					c-0.771,6.091-0.449,12.19,0.865,18.04L3593.521-5647.19z"/>
				<path fill="#62A5A2" d="M3689.369-5582.92c-2.495-2.592-5.494-4.782-8.948-6.398l31.79-44.465
					c2.643,2.487,5.57,4.72,8.769,6.646L3689.369-5582.92z"/>
				<path fill="#62A5A2" d="M3768.043-5720.626l26.697-48.322c2.089,1.807,4.454,3.359,7.085,4.569
					c0.798,0.366,1.604,0.693,2.414,0.988l-26.509,47.98c-2.375-1.62-4.905-3.066-7.599-4.315
					C3769.439-5720.045,3768.742-5720.34,3768.043-5720.626z"/>
				<path fill="#62A5A2" d="M3937.788-5698.36l-137.434,20.859c-0.637-6.068-2.325-11.975-4.97-17.451l139.2-21.129
					C3934.201-5709.954,3935.33-5703.87,3937.788-5698.36z"/>
				<path fill="#62A5A2" d="M3796.654-5652.013l48.406,36.427c-2.658,2.438-4.909,5.391-6.602,8.799l-47.113-35.452
					c1.681-2.445,3.185-5.045,4.466-7.828C3796.109-5650.708,3796.382-5651.364,3796.654-5652.013z"/>
				<path fill="#62A5A2" d="M3662.368-5731.593c2.697-2.405,5.001-5.338,6.74-8.728l44.003,29.157
					c-2.741,2.454-5.24,5.21-7.45,8.264L3662.368-5731.593z"/>
				<path fill="#D09220" d="M3596.953-5654.629c0.188,5.686-0.899,11.492-3.441,17.003c-8.713,18.889-31.092,27.139-49.981,18.426
					c-18.889-8.713-27.139-31.092-18.425-49.985c8.708-18.886,31.087-27.136,49.981-18.426c7.385,3.411,13.138,8.912,16.891,15.48
					C3595.024-5666.817,3596.75-5660.801,3596.953-5654.629z"/>
				<path fill="#D09220" d="M3797.729-5504.501c5.649-0.171,11.416,0.92,16.898,3.447c18.889,8.713,27.14,31.088,18.426,49.981
					c-8.713,18.889-31.092,27.139-49.981,18.426s-27.139-31.092-18.426-49.981c3.454-7.488,9.06-13.301,15.744-17.05
					C3785.67-5502.645,3791.627-5504.313,3797.729-5504.501z"/>
				<path fill="#D09220" d="M3956.399-5679.505c-8.627-3.975-15.024-10.808-18.611-18.855c-2.458-5.51-3.587-11.594-3.203-17.72
					c0.284-4.517,1.38-9.055,3.387-13.402c8.714-18.893,31.093-27.143,49.981-18.426c18.89,8.709,27.141,31.084,18.427,49.977
					C3997.666-5679.038,3975.291-5670.787,3956.399-5679.505z"/>
				<path fill="#D09220" d="M3678.786-5839.876c-6.751,0.849-13.813-0.11-20.442-3.172c-18.894-8.71-27.145-31.085-18.431-49.978
					c8.714-18.893,31.093-27.143,49.981-18.426c18.89,8.709,27.143,31.093,18.431,49.978c-2.923,6.335-7.384,11.467-12.728,15.164
					C3690.594-5842.846,3684.818-5840.633,3678.786-5839.876z"/>
				<path fill="#D43D21" d="M3801.529-5677.617c0.904,8.607-0.267,17.542-3.787,26.052c-0.275,0.664-0.555,1.335-0.858,1.993
					c-1.311,2.843-2.848,5.502-4.565,7.998c-6.692,9.721-16.239,16.708-26.949,20.343c-5.852,1.987-12.045,2.967-18.311,2.841
					c-7.184-0.137-14.455-1.716-21.398-4.922c-1.838-0.845-3.594-1.796-5.29-2.81c-3.271-1.975-6.261-4.264-8.965-6.797
					c-7.92-7.441-13.31-17.042-15.638-27.427c-1.343-5.981-1.675-12.224-0.884-18.444c0.671-5.314,2.157-10.625,4.517-15.743
					c1.5-3.251,3.287-6.272,5.306-9.059c2.262-3.117,4.822-5.943,7.619-8.443c3.943-3.53,8.362-6.423,13.093-8.632
					c5.613-2.623,11.664-4.267,17.871-4.835c8.348-0.765,16.973,0.412,25.202,3.792c0.715,0.29,1.428,0.588,2.134,0.918
					c2.756,1.271,5.344,2.755,7.771,4.403c7.92,5.394,14.05,12.667,18.051,20.93
					C3799.148-5689.871,3800.874-5683.831,3801.529-5677.617z"/>
				<path fill="#E0DCD3" d="M3629.647-5726.712c-15.128-6.976-21.739-24.895-14.758-40.03c6.976-15.128,24.898-21.734,40.03-14.758
					c15.128,6.976,21.733,24.902,14.758,40.03c-0.182,0.393-0.372,0.767-0.564,1.15c-1.739,3.39-4.044,6.322-6.745,8.727
					C3653.678-5723.843,3640.892-5721.521,3629.647-5726.712z"/>
				<path fill="#E0DCD3" d="M3695.039-5549.355c-6.976,15.128-24.903,21.737-40.03,14.757c-15.128-6.976-21.738-24.899-14.758-40.03
					c6.98-15.127,24.902-21.733,40.03-14.758c0.049,0.023,0.093,0.049,0.139,0.068c3.454,1.616,6.454,3.806,8.948,6.398
					C3697.739-5574.231,3700.399-5560.971,3695.039-5549.355z"/>
				<path fill="#E0DCD3" d="M3878.092-5620.749c15.126,6.984,21.737,24.903,14.761,40.031c-6.98,15.131-24.903,21.737-40.031,14.762
					c-15.127-6.979-21.738-24.899-14.761-40.035c0.125-0.264,0.263-0.534,0.395-0.796c1.693-3.408,3.944-6.361,6.602-8.799
					C3853.755-5623.551,3866.713-5625.994,3878.092-5620.749z"/>
				<path fill="#E0DCD3" d="M3794.738-5768.941c-9.92-8.571-13.438-22.964-7.671-35.469c6.98-15.127,24.902-21.733,40.03-14.758
					c15.126,6.984,21.737,24.903,14.758,40.03c-6.61,14.334-23.041,21.01-37.616,15.746c-0.81-0.294-1.616-0.622-2.414-0.988
					C3799.193-5765.59,3796.828-5767.142,3794.738-5768.941z"/>
			</g>
		</g>
		<g>
			
				<g transform="matrix(0.11729688628039896 -0.02574809785325106 0.02574809785325106 0.11729688628039896 82.59192998211728 34.533637851576515)">
				<path fill="#62A5A2" d="M6644.443-4879.616c-6.11,0.187-12.063,1.856-17.343,4.822l-33.311-119.89
					c6.126,0.121,12.189-0.837,17.911-2.779L6644.443-4879.616z"/>
				<path fill="#62A5A2" d="M6572.621-5094.716l-47.129-120.276c6.036-0.756,11.808-2.969,16.814-6.433l47.796,121.979
					C6584.035-5098.888,6578.113-5097.282,6572.621-5094.716z"/>
				<path fill="#62A5A2" d="M6440.234-5022.305c-0.21-6.174-1.938-12.181-4.975-17.502l107.498-13.951
					c-0.771,6.092-0.445,12.191,0.869,18.041L6440.234-5022.305z"/>
				<path fill="#62A5A2" d="M6536.082-4958.035c-2.503-2.593-5.502-4.784-8.952-6.398l31.79-44.465
					c2.643,2.486,5.566,4.718,8.773,6.646L6536.082-4958.035z"/>
				<path fill="#62A5A2" d="M6614.757-5095.741l26.692-48.324c2.092,1.808,4.458,3.36,7.089,4.57
					c0.794,0.366,1.604,0.693,2.414,0.988l-26.517,47.979c-2.367-1.619-4.905-3.067-7.595-4.315
					C6616.145-5095.162,6615.452-5095.455,6614.757-5095.741z"/>
				<path fill="#62A5A2" d="M6784.498-5073.475l-137.43,20.86c-0.641-6.068-2.333-11.977-4.978-17.452l139.204-21.128
					C6780.907-5085.07,6782.043-5078.984,6784.498-5073.475z"/>
				<path fill="#62A5A2" d="M6643.363-5027.128l48.41,36.427c-2.659,2.438-4.913,5.39-6.61,8.798l-47.108-35.451
					c1.677-2.446,3.188-5.044,4.466-7.828C6642.818-5025.824,6643.096-5026.479,6643.363-5027.128z"/>
				<path fill="#62A5A2" d="M6509.074-5106.709c2.701-2.404,5.009-5.336,6.744-8.727l44.003,29.158
					c-2.737,2.455-5.24,5.21-7.451,8.264L6509.074-5106.709z"/>
				<path fill="#D09220" d="M6443.666-5029.744c0.184,5.685-0.899,11.492-3.449,17.001c-8.708,18.89-31.084,27.141-49.977,18.427
					c-18.893-8.714-27.143-31.093-18.425-49.985c8.708-18.886,31.091-27.135,49.977-18.427c7.394,3.413,13.146,8.913,16.899,15.482
					C6441.737-5041.931,6443.456-5035.917,6443.666-5029.744z"/>
				<path fill="#D09220" d="M6644.443-4879.616c5.641-0.173,11.412,0.919,16.894,3.446c18.885,8.712,27.144,31.089,18.426,49.981
					c-8.709,18.89-31.092,27.139-49.977,18.427c-18.893-8.713-27.143-31.093-18.434-49.982c3.458-7.487,9.064-13.3,15.748-17.049
					C6632.379-4877.76,6638.333-4879.43,6644.443-4879.616z"/>
				<path fill="#D09220" d="M6803.112-5054.62c-8.627-3.975-15.028-10.808-18.615-18.855c-2.454-5.509-3.591-11.595-3.204-17.721
					c0.284-4.517,1.38-9.055,3.383-13.402c8.718-18.892,31.093-27.143,49.985-18.425c18.894,8.709,27.145,31.085,18.427,49.977
					C6844.379-5054.153,6821.996-5045.904,6803.112-5054.62z"/>
				<path fill="#D09220" d="M6525.492-5214.993c-6.747,0.85-13.805-0.108-20.442-3.172c-18.886-8.708-27.137-31.083-18.427-49.977
					c8.718-18.892,31.093-27.143,49.985-18.425c18.886,8.708,27.135,31.091,18.427,49.977c-2.922,6.335-7.387,11.466-12.728,15.165
					C6537.308-5217.96,6531.527-5215.749,6525.492-5214.993z"/>
				<path fill="#D43D21" d="M6648.234-5052.734c0.908,8.608-0.263,17.542-3.779,26.054c-0.279,0.663-0.559,1.334-0.862,1.992
					c-1.315,2.842-2.848,5.502-4.569,7.997c-6.688,9.722-16.231,16.71-26.945,20.344c-5.856,1.986-12.049,2.967-18.315,2.84
					c-7.18-0.136-14.451-1.715-21.398-4.922c-1.83-0.843-3.594-1.796-5.286-2.809c-3.271-1.975-6.266-4.264-8.965-6.796
					c-7.924-7.442-13.31-17.042-15.643-27.428c-1.343-5.981-1.671-12.222-0.88-18.443c0.675-5.313,2.157-10.624,4.521-15.742
					c1.496-3.251,3.283-6.273,5.302-9.06c2.258-3.118,4.818-5.944,7.615-8.444c3.947-3.529,8.362-6.423,13.093-8.632
					c5.621-2.621,11.668-4.266,17.878-4.834c8.344-0.766,16.969,0.411,25.202,3.792c0.711,0.289,1.42,0.586,2.13,0.917
					c2.76,1.272,5.348,2.756,7.775,4.404c7.916,5.393,14.045,12.666,18.043,20.928
					C6645.862-5064.985,6647.583-5058.946,6648.234-5052.734z"/>
				<path fill="#E0DCD3" d="M6476.356-5101.827c-15.128-6.976-21.735-24.894-14.757-40.03c6.976-15.128,24.902-21.733,40.03-14.758
					c15.128,6.976,21.733,24.902,14.758,40.03c-0.178,0.394-0.369,0.769-0.569,1.149c-1.735,3.391-4.043,6.322-6.736,8.729
					C6500.387-5098.958,6487.598-5096.637,6476.356-5101.827z"/>
				<path fill="#E0DCD3" d="M6541.752-4924.47c-6.984,15.126-24.903,21.737-40.03,14.757c-15.128-6.976-21.742-24.899-14.766-40.032
					c6.984-15.126,24.902-21.733,40.03-14.757c0.053,0.024,0.097,0.05,0.143,0.069c3.45,1.615,6.449,3.805,8.952,6.398
					C6544.449-4949.346,6547.108-4936.087,6541.752-4924.47z"/>
				<path fill="#E0DCD3" d="M6724.801-4995.864c15.126,6.984,21.741,24.904,14.758,40.03c-6.977,15.132-24.903,21.737-40.031,14.762
					c-15.127-6.98-21.734-24.898-14.756-40.034c0.125-0.264,0.267-0.533,0.391-0.796c1.697-3.408,3.952-6.359,6.61-8.798
					C6700.464-4998.667,6713.422-5001.109,6724.801-4995.864z"/>
				<path fill="#E0DCD3" d="M6641.447-5144.056c-9.924-8.573-13.434-22.964-7.667-35.468c6.976-15.128,24.894-21.735,40.03-14.758
					c15.126,6.984,21.733,24.902,14.757,40.03c-6.618,14.333-23.044,21.009-37.616,15.746c-0.81-0.294-1.62-0.622-2.414-0.988
					C6645.907-5140.705,6643.542-5142.256,6641.447-5144.056z"/>
			</g>
		</g>
	</g>
</pattern>
<pattern  x="199.5" y="324.5" width="350" height="350" patternUnits="userSpaceOnUse" id="pattern_L1_9" viewBox="203.545 -488.931 350 350" overflow="visible">
	<g>
		<polygon fill="none" points="203.545,-138.931 553.545,-138.931 553.545,-488.931 203.545,-488.931 		"/>
		<g>
			
				<g transform="matrix(0.15750337382986562 0.06406917044677742 -0.06406917044677742 0.15750337382986562 169.15378675192719 195.94874208918682)">
				<path fill="#2B3237" d="M-1031.93-943.086c-2.01,5.766-2.58,11.925-1.702,17.917l-123.868-11.795
					c2.305-5.681,3.576-11.679,3.81-17.72L-1031.93-943.086z"/>
				<path fill="#2B3237" d="M-1258.487-952.997l-129.175,0.972c1.45-5.909,1.452-12.092,0.009-18.003l131.005-0.985
					C-1258.3-965.145-1258.92-959.046-1258.487-952.997z"/>
				<path fill="#2B3237" d="M-1238.245-803.459c-5.836-2.016-12.067-2.556-18.124-1.618l25.444-105.376
					c5.407,2.897,11.218,4.774,17.153,5.646L-1238.245-803.459z"/>
				<path fill="#2B3237" d="M-1143.934-869.965c-3.316,1.405-6.432,3.423-9.175,6.07l-30.143-45.599
					c3.262-1.575,6.398-3.508,9.343-5.809L-1143.934-869.965z"/>
				<path fill="#2B3237" d="M-1244.366-992.706l-35.568-42.214c2.43-1.311,4.725-2.964,6.801-4.986
					c0.627-0.615,1.218-1.252,1.781-1.902l35.32,41.925c-2.36,1.636-4.618,3.485-6.747,5.553
					C-1243.326-993.799-1243.848-993.252-1244.366-992.706z"/>
				<path fill="#2B3237" d="M-1162.834-1143.243l-29.699,135.801c-5.901-1.58-12.021-2.116-18.074-1.601l30.082-137.544
					C-1174.94-1144.035-1168.859-1142.919-1162.834-1143.243z"/>
				<path fill="#2B3237" d="M-1170.064-994.868l51.339-32.168c1.324,3.355,3.28,6.515,5.855,9.318l-49.966,31.306
					c-1.678-2.442-3.569-4.78-5.707-6.973C-1169.04-993.896-1169.551-994.382-1170.064-994.868z"/>
				<path fill="#2B3237" d="M-1292.423-897.948c-1.284-3.384-3.194-6.587-5.739-9.421l42.975-30.651
					c1.311,3.435,2.99,6.757,5.047,9.914L-1292.423-897.948z"/>
				<path fill="#D09220" d="M-1243.965-809.328c5.374,1.856,10.408,4.955,14.644,9.296c14.522,14.901,14.218,38.747-0.677,53.269
					c-14.895,14.522-38.747,14.218-53.266-0.678c-14.522-14.895-14.215-38.742,0.679-53.264c5.824-5.68,13.02-9.085,20.493-10.24
					C-1256.032-811.885-1249.801-811.344-1243.965-809.328z"/>
				<path fill="#D09220" d="M-1031.93-943.086c1.861-5.333,4.943-10.331,9.262-14.544c14.895-14.522,38.745-14.223,53.266,0.678
					c14.522,14.895,14.215,38.742-0.679,53.264c-14.897,14.517-38.742,14.222-53.267-0.678c-5.756-5.905-9.175-13.219-10.285-20.803
					C-1034.51-931.161-1033.941-937.321-1031.93-943.086z"/>
				<path fill="#D09220" d="M-1138.565-1153.871c-6.804,6.624-15.474,10.157-24.269,10.629c-6.027,0.319-12.106-0.792-17.694-3.349
					c-4.113-1.88-7.96-4.531-11.303-7.958c-14.524-14.9-14.218-38.747,0.677-53.269c14.895-14.522,38.744-14.217,53.267,0.678
					C-1123.369-1192.245-1123.673-1168.399-1138.565-1153.871z"/>
				<path fill="#D09220" d="M-1387.661-952.025c-1.622,6.606-5.045,12.853-10.276,17.951c-14.895,14.522-38.744,14.217-53.264-0.673
					c-14.524-14.9-14.218-38.747,0.677-53.269c14.895-14.522,38.744-14.217,53.266,0.678c4.869,4.995,8.062,10.994,9.605,17.31
					C-1386.207-964.118-1386.215-957.933-1387.661-952.025z"/>
				<path fill="#D43D21" d="M-1192.226-1008.583c8.367,2.239,16.286,6.526,22.973,12.858c0.526,0.499,1.046,0.994,1.557,1.518
					c2.181,2.238,4.117,4.625,5.832,7.127c6.679,9.721,9.793,21.14,9.353,32.442c-0.241,6.174-1.538,12.307-3.897,18.115
					c-2.703,6.655-6.784,12.878-12.257,18.217c-1.447,1.413-2.959,2.717-4.517,3.933c-3.016,2.349-6.219,4.328-9.557,5.94
					c-9.778,4.74-20.675,6.333-31.205,4.788c-6.068-0.886-12.011-2.808-17.54-5.774c-4.722-2.531-9.148-5.815-13.086-9.855
					c-2.494-2.557-4.677-5.309-6.56-8.194c-2.102-3.225-3.82-6.624-5.158-10.135c-1.884-4.944-3.004-10.106-3.374-15.313
					c-0.441-6.182,0.192-12.416,1.883-18.418c2.269-8.072,6.454-15.702,12.556-22.177c0.528-0.562,1.063-1.121,1.62-1.664
					c2.174-2.118,4.484-4.006,6.896-5.682c7.868-5.464,16.852-8.591,26-9.361
					C-1204.517-1010.745-1198.261-1010.196-1192.226-1008.583z"/>
				<path fill="#E0DCD3" d="M-1299.575-865.649c-11.925,11.634-31.029,11.388-42.658-0.542
					c-11.632-11.935-11.386-31.032,0.543-42.662c11.927-11.628,31.028-11.388,42.66,0.547c0.296,0.301,0.583,0.618,0.87,0.936
					c2.542,2.835,4.455,6.037,5.736,9.422C-1288.302-887.062-1290.706-874.292-1299.575-865.649z"/>
				<path fill="#E0DCD3" d="M-1110.562-863.247c11.63,11.929,11.386,31.032-0.543,42.662s-31.029,11.388-42.663-0.546
					c-11.63-11.93-11.386-31.032,0.545-42.657c0.037-0.04,0.078-0.069,0.114-0.108c2.743-2.647,5.859-4.665,9.175-6.07
					C-1132.822-874.665-1119.493-872.405-1110.562-863.247z"/>
				<path fill="#E0DCD3" d="M-1111.721-1059.727c11.929-11.63,31.029-11.388,42.66,0.547c11.63,11.929,11.386,31.032-0.545,42.656
					c-11.927,11.635-31.029,11.388-42.658-0.542c-0.208-0.213-0.407-0.436-0.609-0.658c-2.573-2.797-4.528-5.958-5.853-9.313
					C-1123.054-1038.004-1120.694-1050.974-1111.721-1059.727z"/>
				<path fill="#E0DCD3" d="M-1279.935-1034.92c-11.55,6.199-26.252,4.33-35.86-5.527c-11.632-11.935-11.386-31.032,0.543-42.662
					c11.929-11.63,31.031-11.389,42.661,0.54c11.019,11.304,11.371,29.036,1.237,40.76c-0.563,0.651-1.153,1.288-1.781,1.902
					C-1275.21-1037.884-1277.504-1036.231-1279.935-1034.92z"/>
			</g>
		</g>
		<g>
			
				<g transform="matrix(0.15750337382986562 0.06406917044677742 -0.06406917044677742 0.15750337382986562 169.15378675192719 195.94874208918682)">
				<path fill="#2B3237" d="M874.75-1718.686c-2.01,5.766-2.58,11.925-1.702,17.917l-123.868-11.796
					c2.305-5.681,3.576-11.679,3.81-17.72L874.75-1718.686z"/>
				<path fill="#2B3237" d="M648.193-1728.596l-129.175,0.972c1.447-5.908,1.452-12.092,0.009-18.003l131.005-0.985
					C648.38-1740.744,647.76-1734.645,648.193-1728.596z"/>
				<path fill="#2B3237" d="M668.436-1579.058c-5.836-2.016-12.067-2.557-18.127-1.617l25.447-105.377
					c5.407,2.897,11.215,4.776,17.153,5.646L668.436-1579.058z"/>
				<path fill="#2B3237" d="M762.746-1645.565c-3.316,1.405-6.432,3.423-9.175,6.07l-30.143-45.599
					c3.262-1.575,6.398-3.508,9.343-5.809L762.746-1645.565z"/>
				<path fill="#2B3237" d="M662.314-1768.305l-35.568-42.214c2.43-1.311,4.725-2.964,6.801-4.986
					c0.627-0.615,1.218-1.252,1.781-1.902l35.32,41.925c-2.36,1.636-4.618,3.484-6.747,5.553
					C663.354-1769.398,662.83-1768.85,662.314-1768.305z"/>
				<path fill="#2B3237" d="M743.846-1918.842l-29.699,135.801c-5.901-1.58-12.021-2.116-18.074-1.601l30.082-137.544
					C731.74-1919.634,737.821-1918.518,743.846-1918.842z"/>
				<path fill="#2B3237" d="M736.616-1770.467l51.339-32.168c1.324,3.355,3.28,6.515,5.855,9.318l-49.966,31.306
					c-1.679-2.442-3.569-4.78-5.707-6.973C737.64-1769.495,737.129-1769.982,736.616-1770.467z"/>
				<path fill="#2B3237" d="M614.257-1673.547c-1.284-3.384-3.194-6.587-5.739-9.421l42.975-30.651
					c1.31,3.435,2.99,6.757,5.046,9.914L614.257-1673.547z"/>
				<path fill="#D09220" d="M662.715-1584.928c5.374,1.856,10.408,4.955,14.644,9.296c14.522,14.901,14.218,38.747-0.677,53.269
					c-14.895,14.522-38.747,14.218-53.267-0.678c-14.522-14.895-14.215-38.742,0.679-53.264c5.824-5.68,13.02-9.085,20.493-10.24
					C650.645-1587.483,656.879-1586.944,662.715-1584.928z"/>
				<path fill="#D09220" d="M874.75-1718.686c1.861-5.333,4.943-10.331,9.262-14.544c14.895-14.522,38.742-14.222,53.267,0.678
					c14.522,14.895,14.215,38.742-0.679,53.264c-14.897,14.517-38.742,14.222-53.267-0.678c-5.756-5.905-9.175-13.219-10.285-20.803
					C872.17-1706.761,872.739-1712.92,874.75-1718.686z"/>
				<path fill="#D09220" d="M768.115-1929.471c-6.804,6.624-15.474,10.157-24.269,10.629c-6.027,0.319-12.106-0.792-17.694-3.349
					c-4.113-1.88-7.96-4.531-11.304-7.958c-14.524-14.9-14.218-38.747,0.677-53.269c14.895-14.522,38.744-14.217,53.266,0.678
					C783.311-1967.844,783.007-1943.998,768.115-1929.471z"/>
				<path fill="#D09220" d="M519.018-1727.624c-1.622,6.606-5.045,12.853-10.276,17.951c-14.895,14.522-38.744,14.216-53.264-0.673
					c-14.524-14.9-14.218-38.747,0.677-53.269c14.895-14.522,38.744-14.216,53.267,0.678c4.868,4.995,8.062,10.994,9.605,17.31
					C520.473-1739.718,520.465-1733.533,519.018-1727.624z"/>
				<path fill="#D43D21" d="M714.454-1784.182c8.367,2.239,16.286,6.526,22.973,12.858c0.525,0.499,1.046,0.994,1.557,1.518
					c2.181,2.238,4.117,4.625,5.832,7.127c6.679,9.721,9.793,21.14,9.353,32.442c-0.241,6.174-1.538,12.307-3.897,18.115
					c-2.703,6.655-6.784,12.878-12.257,18.217c-1.447,1.413-2.959,2.717-4.517,3.933c-3.016,2.349-6.219,4.328-9.557,5.94
					c-9.778,4.74-20.675,6.333-31.205,4.788c-6.068-0.886-12.012-2.809-17.54-5.774c-4.722-2.531-9.148-5.815-13.086-9.855
					c-2.494-2.557-4.677-5.309-6.56-8.194c-2.102-3.225-3.82-6.624-5.158-10.135c-1.884-4.944-3.004-10.106-3.374-15.313
					c-0.441-6.182,0.192-12.417,1.883-18.418c2.269-8.072,6.454-15.702,12.556-22.177c0.528-0.562,1.063-1.121,1.62-1.664
					c2.173-2.118,4.484-4.006,6.896-5.682c7.868-5.464,16.852-8.591,26-9.361C702.163-1786.344,708.419-1785.795,714.454-1784.182z"
					/>
				<path fill="#E0DCD3" d="M607.105-1641.249c-11.927,11.635-31.029,11.388-42.658-0.542
					c-11.634-11.934-11.386-31.032,0.543-42.662c11.927-11.629,31.029-11.388,42.66,0.547c0.296,0.301,0.583,0.618,0.87,0.936
					c2.542,2.835,4.455,6.037,5.736,9.422C618.378-1662.662,615.974-1649.891,607.105-1641.249z"/>
				<path fill="#E0DCD3" d="M796.118-1638.846c11.63,11.93,11.386,31.032-0.543,42.662c-11.929,11.63-31.029,11.388-42.663-0.546
					c-11.63-11.929-11.386-31.032,0.545-42.656c0.037-0.04,0.077-0.069,0.114-0.108c2.743-2.647,5.859-4.665,9.175-6.07
					C773.858-1650.265,787.187-1648.005,796.118-1638.846z"/>
				<path fill="#E0DCD3" d="M794.959-1835.327c11.927-11.629,31.029-11.388,42.66,0.547c11.63,11.929,11.386,31.032-0.545,42.656
					c-11.927,11.635-31.029,11.388-42.658-0.542c-0.208-0.213-0.407-0.436-0.609-0.658c-2.573-2.797-4.529-5.958-5.853-9.313
					C783.626-1813.604,785.986-1826.574,794.959-1835.327z"/>
				<path fill="#E0DCD3" d="M626.745-1810.52c-11.55,6.199-26.252,4.33-35.86-5.527c-11.632-11.935-11.386-31.032,0.543-42.662
					c11.93-11.63,31.029-11.388,42.661,0.54c11.019,11.304,11.371,29.036,1.238,40.76c-0.563,0.651-1.153,1.288-1.781,1.902
					C631.47-1813.483,629.176-1811.831,626.745-1810.52z"/>
			</g>
		</g>
		<g>
			
				<g transform="matrix(0.15750337382986562 0.06406917044677742 -0.06406917044677742 0.15750337382986562 169.15378675192719 195.94874208918682)">
				<path fill="#2B3237" d="M2781.435-2494.286c-2.013,5.767-2.583,11.926-1.708,17.919l-123.863-11.798
					c2.302-5.68,3.571-11.677,3.81-17.72L2781.435-2494.286z"/>
				<path fill="#2B3237" d="M2554.875-2504.196l-129.172,0.971c1.447-5.908,1.449-12.091,0.006-18.002l131.008-0.986
					C2555.062-2516.343,2554.442-2510.245,2554.875-2504.196z"/>
				<path fill="#2B3237" d="M2575.118-2354.657c-5.836-2.016-12.07-2.555-18.124-1.618l25.444-105.375
					c5.407,2.897,11.218,4.774,17.153,5.646L2575.118-2354.657z"/>
				<path fill="#2B3237" d="M2669.428-2421.164c-3.316,1.405-6.432,3.423-9.175,6.07l-30.143-45.599
					c3.265-1.576,6.398-3.508,9.343-5.81L2669.428-2421.164z"/>
				<path fill="#2B3237" d="M2568.993-2543.903l-35.563-42.217c2.425-1.309,4.722-2.963,6.796-4.984
					c0.63-0.616,1.22-1.253,1.786-1.905l35.315,41.927c-2.36,1.636-4.616,3.484-6.744,5.552
					C2570.036-2544.997,2569.514-2544.45,2568.993-2543.903z"/>
				<path fill="#2B3237" d="M2650.525-2694.44l-29.697,135.801c-5.901-1.58-12.021-2.116-18.074-1.601l30.079-137.543
					C2638.422-2695.234,2644.5-2694.116,2650.525-2694.44z"/>
				<path fill="#2B3237" d="M2643.298-2546.067l51.341-32.169c1.322,3.356,3.277,6.516,5.85,9.32l-49.963,31.305
					c-1.676-2.443-3.569-4.78-5.707-6.973C2644.32-2545.094,2643.811-2545.581,2643.298-2546.067z"/>
				<path fill="#2B3237" d="M2520.939-2449.146c-1.283-3.384-3.194-6.587-5.736-9.422l42.975-30.651
					c1.305,3.437,2.985,6.759,5.044,9.915L2520.939-2449.146z"/>
				<path fill="#D09220" d="M2569.4-2360.528c5.369,1.859,10.405,4.956,14.639,9.298c14.524,14.9,14.218,38.747-0.677,53.269
					c-14.895,14.522-38.742,14.215-53.264-0.679s-14.216-38.742,0.679-53.264c5.824-5.68,13.02-9.085,20.493-10.24
					C2557.33-2363.084,2563.564-2362.544,2569.4-2360.528z"/>
				<path fill="#D09220" d="M2781.435-2494.286c1.855-5.331,4.943-10.332,9.262-14.544c14.895-14.522,38.74-14.221,53.264,0.679
					c14.522,14.895,14.216,38.742-0.679,53.264c-14.897,14.517-38.745,14.223-53.264-0.679c-5.762-5.903-9.178-13.218-10.291-20.801
					C2778.852-2482.36,2779.421-2488.52,2781.435-2494.286z"/>
				<path fill="#D09220" d="M2674.797-2705.07c-6.804,6.624-15.474,10.157-24.272,10.63c-6.027,0.319-12.103-0.793-17.694-3.349
					c-4.113-1.88-7.957-4.532-11.303-7.958c-14.519-14.902-14.218-38.747,0.677-53.269c14.895-14.522,38.747-14.218,53.269,0.677
					C2689.996-2743.445,2689.689-2719.598,2674.797-2705.07z"/>
				<path fill="#D09220" d="M2425.703-2503.225c-1.622,6.606-5.051,12.855-10.281,17.953c-14.895,14.522-38.742,14.216-53.262-0.674
					c-14.524-14.9-14.218-38.747,0.677-53.269s38.747-14.218,53.264,0.679c4.871,4.994,8.062,10.993,9.608,17.309
					C2427.152-2515.316,2427.15-2509.133,2425.703-2503.225z"/>
				<path fill="#D43D21" d="M2621.133-2559.781c8.369,2.238,16.289,6.525,22.975,12.857c0.526,0.499,1.049,0.993,1.554,1.519
					c2.187,2.236,4.119,4.624,5.837,7.125c6.677,9.722,9.79,21.141,9.347,32.445c-0.236,6.172-1.536,12.306-3.897,18.115
					c-2.7,6.654-6.779,12.876-12.252,18.215c-1.452,1.415-2.962,2.718-4.519,3.934c-3.013,2.348-6.219,4.328-9.557,5.94
					c-9.778,4.74-20.675,6.333-31.205,4.788c-6.071-0.885-12.011-2.808-17.54-5.774c-4.725-2.53-9.148-5.815-13.086-9.855
					c-2.497-2.556-4.677-5.308-6.558-8.195c-2.105-3.223-3.823-6.623-5.158-10.135c-1.887-4.943-3.007-10.105-3.376-15.312
					c-0.438-6.183,0.194-12.418,1.883-18.418c2.271-8.073,6.454-15.702,12.556-22.177c0.528-0.562,1.063-1.121,1.623-1.665
					c2.171-2.117,4.484-4.006,6.896-5.682c7.866-5.463,16.849-8.59,25.997-9.36
					C2608.845-2561.944,2615.101-2561.395,2621.133-2559.781z"/>
				<path fill="#E0DCD3" d="M2513.79-2416.849c-11.927,11.635-31.031,11.389-42.661-0.541
					c-11.632-11.935-11.389-31.031,0.541-42.661s31.031-11.389,42.663,0.546c0.296,0.301,0.586,0.617,0.87,0.936
					c2.542,2.835,4.453,6.038,5.736,9.422C2525.063-2438.262,2522.656-2425.49,2513.79-2416.849z"/>
				<path fill="#E0DCD3" d="M2702.797-2414.444c11.635,11.927,11.389,31.031-0.541,42.661s-31.031,11.389-42.663-0.546
					c-11.629-11.93-11.384-31.033,0.548-42.658c0.034-0.039,0.077-0.069,0.111-0.107c2.743-2.647,5.859-4.665,9.175-6.07
					C2680.537-2425.863,2693.869-2423.604,2702.797-2414.444z"/>
				<path fill="#E0DCD3" d="M2701.641-2610.926c11.929-11.629,31.026-11.387,42.663,0.546c11.629,11.929,11.384,31.033-0.548,42.658
					c-11.927,11.635-31.031,11.389-42.661-0.541c-0.205-0.214-0.402-0.438-0.609-0.658c-2.571-2.799-4.526-5.959-5.848-9.315
					C2690.308-2589.203,2692.67-2602.174,2701.641-2610.926z"/>
				<path fill="#E0DCD3" d="M2533.43-2586.12c-11.552,6.2-26.252,4.33-35.86-5.527c-11.632-11.935-11.389-31.031,0.541-42.661
					c11.929-11.629,31.031-11.389,42.661,0.541c11.016,11.305,11.371,29.036,1.24,40.758c-0.566,0.652-1.156,1.289-1.781,1.903
					C2538.152-2589.083,2535.855-2587.429,2533.43-2586.12z"/>
			</g>
		</g>
		<g>
			
				<g transform="matrix(0.15750337382986562 0.06406917044677742 -0.06406917044677742 0.15750337382986562 169.15378675192719 195.94874208918682)">
				<path fill="#2B3237" d="M-1807.531-2849.768c-2.01,5.766-2.58,11.925-1.701,17.919l-123.869-11.798
					c2.305-5.681,3.575-11.682,3.81-17.72L-1807.531-2849.768z"/>
				<path fill="#2B3237" d="M-2034.089-2859.682l-129.175,0.972c1.452-5.904,1.453-12.089,0.01-18l131.005-0.985
					C-2033.902-2871.827-2034.521-2865.728-2034.089-2859.682z"/>
				<path fill="#2B3237" d="M-2013.846-2710.141c-5.836-2.016-12.068-2.559-18.125-1.621l25.445-105.373
					c5.407,2.897,11.219,4.777,17.153,5.646L-2013.846-2710.141z"/>
				<path fill="#2B3237" d="M-1919.535-2776.647c-3.316,1.405-6.432,3.423-9.175,6.07l-30.142-45.597
					c3.261-1.578,6.397-3.51,9.343-5.809L-1919.535-2776.647z"/>
				<path fill="#2B3237" d="M-2019.967-2899.385l-35.57-42.22c2.433-1.306,4.726-2.961,6.802-4.983
					c0.628-0.612,1.218-1.252,1.781-1.903l35.32,41.925c-2.359,1.639-4.62,3.482-6.747,5.553
					C-2018.927-2900.481-2019.449-2899.934-2019.967-2899.385z"/>
				<path fill="#2B3237" d="M-1938.436-3049.925l-29.7,135.799c-5.899-1.575-12.02-2.114-18.074-1.601l30.082-137.544
					C-1950.542-3050.72-1944.46-3049.601-1938.436-3049.925z"/>
				<path fill="#2B3237" d="M-1945.666-2901.55l51.34-32.166c1.323,3.353,3.279,6.513,5.854,9.316l-49.967,31.303
					c-1.677-2.439-3.568-4.777-5.706-6.97C-1944.641-2900.578-1945.152-2901.064-1945.666-2901.55z"/>
				<path fill="#2B3237" d="M-2068.026-2804.633c-1.282-3.381-3.192-6.582-5.738-9.418l42.974-30.653
					c1.311,3.435,2.992,6.76,5.047,9.914L-2068.026-2804.633z"/>
				<path fill="#D09220" d="M-2019.565-2716.008c5.374,1.856,10.406,4.95,14.644,9.296c14.52,14.896,14.217,38.744-0.678,53.267
					c-14.896,14.52-38.746,14.22-53.266-0.678c-14.522-14.895-14.217-38.744,0.679-53.264c5.824-5.68,13.021-9.082,20.493-10.24
					C-2031.633-2718.567-2025.402-2718.026-2019.565-2716.008z"/>
				<path fill="#D09220" d="M-1807.531-2849.768c1.86-5.335,4.942-10.334,9.262-14.544c14.895-14.522,38.746-14.22,53.266,0.675
					c14.523,14.897,14.217,38.744-0.678,53.267c-14.896,14.52-38.743,14.219-53.266-0.678c-5.756-5.905-9.175-13.219-10.285-20.803
					C-1810.112-2837.844-1809.542-2844.003-1807.531-2849.768z"/>
				<path fill="#D09220" d="M-1914.167-3060.556c-6.802,6.63-15.473,10.16-24.268,10.631c-6.026,0.322-12.107-0.795-17.694-3.349
					c-4.113-1.88-7.959-4.528-11.305-7.96c-14.522-14.895-14.217-38.744,0.678-53.266c14.896-14.52,38.744-14.217,53.267,0.678
					C-1898.97-3098.927-1899.273-3075.078-1914.167-3060.556z"/>
				<path fill="#D09220" d="M-2163.264-2858.71c-1.621,6.609-5.044,12.856-10.274,17.956c-14.896,14.52-38.744,14.217-53.266-0.678
					s-14.217-38.744,0.678-53.267c14.896-14.52,38.744-14.217,53.267,0.678c4.867,4.992,8.062,10.993,9.605,17.31
					C-2161.808-2870.8-2161.815-2864.613-2163.264-2858.71z"/>
				<path fill="#D43D21" d="M-1967.828-2915.265c8.365,2.236,16.286,6.526,22.973,12.858c0.524,0.497,1.046,0.994,1.556,1.516
					c2.183,2.243,4.119,4.63,5.832,7.126c6.682,9.726,9.793,21.14,9.353,32.442c-0.241,6.174-1.537,12.31-3.896,18.118
					c-2.702,6.657-6.783,12.881-12.257,18.217c-1.447,1.413-2.959,2.717-4.518,3.93c-3.015,2.352-6.219,4.328-9.555,5.942
					c-9.779,4.738-20.676,6.33-31.204,4.791c-6.069-0.889-12.013-2.811-17.54-5.774c-4.722-2.531-9.148-5.814-13.086-9.855
					c-2.496-2.562-4.678-5.311-6.562-8.197c-2.102-3.225-3.82-6.624-5.158-10.135c-1.884-4.944-3.004-10.106-3.374-15.313
					c-0.44-6.179,0.192-12.417,1.882-18.421c2.271-8.067,6.455-15.699,12.556-22.177c0.529-0.559,1.064-1.118,1.621-1.661
					c2.174-2.118,4.485-4.004,6.897-5.679c7.867-5.466,16.852-8.591,25.998-9.366
					C-1980.118-2917.427-1973.861-2916.875-1967.828-2915.265z"/>
				<path fill="#E0DCD3" d="M-2075.176-2772.329c-11.927,11.628-31.03,11.385-42.659-0.544
					c-11.631-11.932-11.386-31.032,0.543-42.662c11.927-11.628,31.029-11.388,42.659,0.544c0.298,0.307,0.584,0.621,0.87,0.936
					c2.544,2.84,4.457,6.04,5.736,9.422C-2063.904-2793.744-2066.307-2780.974-2075.176-2772.329z"/>
				<path fill="#E0DCD3" d="M-1886.163-2769.929c11.63,11.929,11.386,31.032-0.543,42.662c-11.929,11.629-31.03,11.385-42.662-0.543
					c-11.631-11.932-11.386-31.032,0.543-42.662c0.038-0.037,0.078-0.069,0.115-0.106c2.743-2.647,5.859-4.665,9.175-6.07
					C-1908.424-2781.35-1895.095-2779.09-1886.163-2769.929z"/>
				<path fill="#E0DCD3" d="M-1887.322-2966.409c11.929-11.63,31.03-11.385,42.659,0.544c11.631,11.932,11.386,31.032-0.543,42.662
					c-11.93,11.63-31.03,11.385-42.659-0.544c-0.208-0.213-0.407-0.436-0.608-0.655c-2.574-2.8-4.53-5.96-5.853-9.313
					C-1898.656-2944.686-1896.297-2957.659-1887.322-2966.409z"/>
				<path fill="#E0DCD3" d="M-2055.537-2941.605c-11.549,6.201-26.252,4.33-35.859-5.524c-11.631-11.932-11.386-31.032,0.543-42.662
					c11.93-11.63,31.031-11.389,42.662,0.543c11.018,11.301,11.37,29.033,1.237,40.757c-0.563,0.651-1.152,1.29-1.781,1.903
					C-2050.811-2944.566-2053.104-2942.911-2055.537-2941.605z"/>
			</g>
		</g>
		<g>
			
				<g transform="matrix(0.15750337382986562 0.06406917044677742 -0.06406917044677742 0.15750337382986562 169.15378675192719 195.94874208918682)">
				<path fill="#2B3237" d="M99.15-3625.368c-2.01,5.766-2.58,11.925-1.701,17.919l-123.869-11.798
					c2.305-5.681,3.575-11.682,3.81-17.72L99.15-3625.368z"/>
				<path fill="#2B3237" d="M-127.407-3635.281l-129.175,0.972c1.449-5.903,1.453-12.089,0.01-18l131.005-0.985
					C-127.22-3647.426-127.839-3641.327-127.407-3635.281z"/>
				<path fill="#2B3237" d="M-107.164-3485.74c-5.836-2.016-12.068-2.559-18.128-1.619l25.448-105.374
					c5.407,2.897,11.216,4.778,17.153,5.646L-107.164-3485.74z"/>
				<path fill="#2B3237" d="M-12.853-3552.247c-3.316,1.405-6.432,3.423-9.175,6.07l-30.142-45.597
					c3.261-1.578,6.397-3.51,9.343-5.809L-12.853-3552.247z"/>
				<path fill="#2B3237" d="M-113.285-3674.984l-35.57-42.22c2.433-1.306,4.726-2.961,6.802-4.983
					c0.628-0.612,1.218-1.252,1.781-1.903l35.32,41.925c-2.359,1.639-4.62,3.482-6.747,5.553
					C-112.245-3676.08-112.77-3675.532-113.285-3674.984z"/>
				<path fill="#2B3237" d="M-31.753-3825.524l-29.701,135.799c-5.899-1.575-12.02-2.114-18.074-1.601l30.082-137.544
					C-43.86-3826.319-37.779-3825.2-31.753-3825.524z"/>
				<path fill="#2B3237" d="M-38.984-3677.149l51.34-32.166c1.323,3.353,3.279,6.513,5.854,9.316l-49.967,31.303
					c-1.677-2.439-3.568-4.777-5.706-6.97C-37.959-3676.177-38.47-3676.664-38.984-3677.149z"/>
				<path fill="#2B3237" d="M-161.344-3580.232c-1.282-3.381-3.192-6.582-5.738-9.418l42.974-30.653
					c1.311,3.435,2.992,6.76,5.046,9.914L-161.344-3580.232z"/>
				<path fill="#D09220" d="M-112.883-3491.607c5.374,1.856,10.406,4.95,14.644,9.296c14.52,14.896,14.217,38.744-0.678,53.267
					c-14.896,14.52-38.746,14.22-53.267-0.678c-14.522-14.895-14.217-38.744,0.679-53.264c5.824-5.68,13.022-9.082,20.493-10.24
					C-124.954-3494.165-118.72-3493.626-112.883-3491.607z"/>
				<path fill="#D09220" d="M99.15-3625.368c1.86-5.335,4.942-10.334,9.262-14.544c14.895-14.522,38.743-14.219,53.265,0.675
					c14.523,14.897,14.217,38.744-0.678,53.267c-14.896,14.52-38.743,14.219-53.267-0.678c-5.756-5.905-9.175-13.219-10.285-20.803
					C96.57-3613.443,97.14-3619.602,99.15-3625.368z"/>
				<path fill="#D09220" d="M-7.485-3836.155c-6.802,6.63-15.472,10.16-24.268,10.631c-6.026,0.322-12.107-0.795-17.694-3.349
					c-4.113-1.88-7.959-4.528-11.305-7.96c-14.522-14.895-14.217-38.744,0.678-53.266c14.896-14.52,38.744-14.217,53.267,0.678
					C7.712-3874.526,7.409-3850.677-7.485-3836.155z"/>
				<path fill="#D09220" d="M-256.582-3634.309c-1.621,6.609-5.044,12.856-10.274,17.956c-14.896,14.52-38.744,14.217-53.267-0.678
					c-14.522-14.895-14.217-38.744,0.678-53.267c14.896-14.52,38.744-14.217,53.267,0.678c4.867,4.992,8.062,10.993,9.605,17.31
					C-255.126-3646.4-255.133-3640.212-256.582-3634.309z"/>
				<path fill="#D43D21" d="M-61.146-3690.865c8.365,2.236,16.286,6.526,22.973,12.858c0.524,0.497,1.046,0.994,1.556,1.516
					c2.183,2.243,4.119,4.63,5.832,7.126c6.681,9.726,9.793,21.14,9.353,32.442c-0.241,6.174-1.537,12.31-3.896,18.118
					c-2.702,6.657-6.783,12.881-12.257,18.217c-1.446,1.413-2.959,2.717-4.518,3.93c-3.015,2.352-6.219,4.328-9.556,5.942
					c-9.779,4.738-20.676,6.33-31.204,4.791c-6.069-0.889-12.013-2.811-17.54-5.774c-4.722-2.531-9.148-5.814-13.086-9.855
					c-2.496-2.562-4.678-5.311-6.562-8.197c-2.102-3.225-3.82-6.624-5.158-10.135c-1.884-4.944-3.004-10.106-3.374-15.313
					c-0.44-6.179,0.192-12.417,1.882-18.421c2.271-8.067,6.455-15.699,12.556-22.177c0.529-0.559,1.064-1.118,1.622-1.661
					c2.173-2.118,4.485-4.004,6.897-5.679c7.867-5.466,16.852-8.591,25.998-9.366C-73.436-3693.026-67.179-3692.474-61.146-3690.865
					z"/>
				<path fill="#E0DCD3" d="M-168.493-3547.928c-11.929,11.63-31.03,11.385-42.659-0.544c-11.633-11.931-11.386-31.032,0.543-42.662
					c11.927-11.628,31.029-11.388,42.659,0.544c0.298,0.307,0.584,0.621,0.87,0.936c2.544,2.84,4.456,6.04,5.736,9.422
					C-157.222-3569.344-159.625-3556.573-168.493-3547.928z"/>
				<path fill="#E0DCD3" d="M20.519-3545.528c11.63,11.929,11.386,31.032-0.543,42.662c-11.929,11.629-31.03,11.385-42.662-0.543
					c-11.631-11.932-11.386-31.032,0.543-42.662c0.038-0.037,0.077-0.069,0.115-0.106c2.743-2.647,5.859-4.665,9.175-6.07
					C-1.742-3556.949,11.587-3554.689,20.519-3545.528z"/>
				<path fill="#E0DCD3" d="M19.36-3742.009c11.927-11.628,31.03-11.385,42.659,0.544c11.631,11.932,11.386,31.032-0.543,42.662
					s-31.03,11.385-42.659-0.544c-0.208-0.213-0.407-0.436-0.607-0.655c-2.574-2.8-4.53-5.96-5.853-9.313
					C8.026-3720.286,10.385-3733.258,19.36-3742.009z"/>
				<path fill="#E0DCD3" d="M-148.855-3717.204c-11.549,6.201-26.252,4.33-35.859-5.524c-11.631-11.932-11.386-31.032,0.543-42.662
					s31.029-11.388,42.662,0.543c11.017,11.301,11.37,29.033,1.236,40.757c-0.563,0.651-1.152,1.29-1.781,1.903
					C-144.129-3720.165-146.423-3718.51-148.855-3717.204z"/>
			</g>
		</g>
		<g>
			
				<g transform="matrix(0.15750337382986562 0.06406917044677742 -0.06406917044677742 0.15750337382986562 169.15378675192719 195.94874208918682)">
				<path fill="#2B3237" d="M2005.835-4400.968c-2.013,5.767-2.583,11.926-1.706,17.922l-123.864-11.8
					c2.303-5.68,3.57-11.68,3.81-17.72L2005.835-4400.968z"/>
				<path fill="#2B3237" d="M1779.275-4410.88l-129.172,0.971c1.449-5.903,1.45-12.088,0.007-17.999l131.008-0.986
					C1779.462-4423.025,1778.843-4416.927,1779.275-4410.88z"/>
				<path fill="#2B3237" d="M1799.518-4261.339c-5.836-2.016-12.071-2.558-18.125-1.621l25.445-105.373
					c5.407,2.897,11.219,4.777,17.153,5.646L1799.518-4261.339z"/>
				<path fill="#2B3237" d="M1893.829-4327.846c-3.316,1.405-6.432,3.423-9.175,6.07l-30.142-45.597
					c3.264-1.579,6.397-3.51,9.343-5.81L1893.829-4327.846z"/>
				<path fill="#2B3237" d="M1793.395-4450.583l-35.565-42.222c2.427-1.304,4.723-2.96,6.797-4.981
					c0.631-0.613,1.22-1.253,1.786-1.904l35.315,41.927c-2.359,1.639-4.617,3.481-6.744,5.552
					C1794.437-4451.679,1793.915-4451.132,1793.395-4450.583z"/>
				<path fill="#2B3237" d="M1874.926-4601.123l-29.698,135.798c-5.899-1.575-12.02-2.113-18.074-1.601l30.079-137.543
					C1862.822-4601.918,1868.901-4600.798,1874.926-4601.123z"/>
				<path fill="#2B3237" d="M1867.698-4452.749l51.342-32.167c1.321,3.354,3.276,6.514,5.849,9.318l-49.964,31.302
					c-1.675-2.44-3.568-4.777-5.706-6.97C1868.72-4451.775,1868.212-4452.263,1867.698-4452.749z"/>
				<path fill="#2B3237" d="M1745.338-4355.831c-1.282-3.381-3.192-6.582-5.735-9.42l42.974-30.653
					c1.305,3.438,2.986,6.762,5.044,9.915L1745.338-4355.831z"/>
				<path fill="#D09220" d="M1793.802-4267.208c5.369,1.858,10.403,4.951,14.639,9.298c14.522,14.895,14.217,38.744-0.678,53.267
					c-14.896,14.52-38.74,14.218-53.264-0.679c-14.522-14.895-14.217-38.745,0.679-53.264c5.824-5.68,13.021-9.082,20.493-10.24
					C1781.731-4269.766,1787.964-4269.226,1793.802-4267.208z"/>
				<path fill="#D09220" d="M2005.835-4400.968c1.854-5.333,4.942-10.334,9.262-14.543c14.895-14.522,38.741-14.218,53.263,0.676
					c14.523,14.897,14.217,38.744-0.678,53.267c-14.896,14.52-38.746,14.22-53.264-0.679c-5.762-5.903-9.178-13.218-10.291-20.801
					C2003.252-4389.042,2003.822-4395.202,2005.835-4400.968z"/>
				<path fill="#D09220" d="M1899.197-4611.755c-6.802,6.63-15.473,10.16-24.271,10.632c-6.026,0.322-12.104-0.796-17.694-3.349
					c-4.113-1.879-7.956-4.529-11.305-7.96c-14.517-14.897-14.217-38.744,0.678-53.267c14.896-14.52,38.747-14.218,53.269,0.677
					C1914.397-4650.126,1914.091-4626.277,1899.197-4611.755z"/>
				<path fill="#D09220" d="M1650.103-4409.91c-1.621,6.609-5.05,12.858-10.279,17.958c-14.896,14.52-38.742,14.215-53.264-0.679
					s-14.217-38.744,0.678-53.267c14.896-14.52,38.747-14.218,53.264,0.679c4.87,4.991,8.062,10.994,9.608,17.309
					C1651.553-4421.998,1651.552-4415.813,1650.103-4409.91z"/>
				<path fill="#D43D21" d="M1845.534-4466.463c8.368,2.235,16.289,6.525,22.975,12.857c0.524,0.497,1.049,0.993,1.553,1.517
					c2.189,2.241,4.121,4.629,5.837,7.125c6.679,9.727,9.79,21.141,9.347,32.444c-0.236,6.172-1.534,12.309-3.896,18.118
					c-2.699,6.656-6.777,12.878-12.252,18.215c-1.452,1.415-2.962,2.718-4.52,3.932c-3.012,2.351-6.219,4.328-9.556,5.942
					c-9.779,4.737-20.676,6.33-31.204,4.791c-6.072-0.888-12.013-2.811-17.54-5.774c-4.724-2.53-9.148-5.815-13.086-9.855
					c-2.499-2.561-4.678-5.311-6.559-8.198c-2.105-3.224-3.823-6.623-5.158-10.135c-1.887-4.943-3.007-10.105-3.376-15.312
					c-0.437-6.181,0.194-12.418,1.882-18.421c2.274-8.068,6.455-15.699,12.556-22.177c0.529-0.56,1.064-1.118,1.624-1.662
					c2.171-2.117,4.485-4.004,6.897-5.68c7.865-5.465,16.849-8.59,25.995-9.365
					C1833.246-4468.625,1839.503-4468.074,1845.534-4466.463z"/>
				<path fill="#E0DCD3" d="M1738.191-4323.528c-11.929,11.629-31.032,11.386-42.662-0.543
					c-11.631-11.932-11.389-31.031,0.541-42.661c11.929-11.629,31.031-11.389,42.662,0.543c0.298,0.306,0.587,0.62,0.87,0.936
					c2.544,2.84,4.454,6.041,5.736,9.422C1749.463-4344.944,1747.057-4332.172,1738.191-4323.528z"/>
				<path fill="#E0DCD3" d="M1927.198-4321.126c11.635,11.927,11.389,31.031-0.54,42.661c-11.93,11.63-31.032,11.387-42.662-0.543
					c-11.631-11.932-11.384-31.033,0.546-42.663c0.035-0.036,0.077-0.068,0.112-0.104c2.743-2.647,5.859-4.665,9.175-6.07
					C1904.937-4332.547,1918.269-4330.289,1927.198-4321.126z"/>
				<path fill="#E0DCD3" d="M1926.042-4517.608c11.929-11.629,31.027-11.384,42.662,0.543c11.631,11.932,11.384,31.034-0.546,42.663
					c-11.929,11.629-31.032,11.386-42.662-0.543c-0.205-0.214-0.401-0.438-0.607-0.655c-2.572-2.801-4.527-5.961-5.848-9.315
					C1914.708-4495.885,1917.07-4508.859,1926.042-4517.608z"/>
				<path fill="#E0DCD3" d="M1757.83-4492.805c-11.552,6.203-26.252,4.33-35.859-5.524c-11.631-11.932-11.389-31.031,0.54-42.661
					c11.93-11.629,31.031-11.389,42.662,0.543c11.015,11.302,11.37,29.033,1.239,40.756c-0.566,0.651-1.155,1.291-1.781,1.902
					C1762.553-4495.765,1760.257-4494.108,1757.83-4492.805z"/>
			</g>
		</g>
		<g>
			
				<g transform="matrix(0.15750337382986562 0.06406917044677742 -0.06406917044677742 0.15750337382986562 169.15378675192719 195.94874208918682)">
				<path fill="#2B3237" d="M-2583.131-4756.45c-2.01,5.766-2.58,11.925-1.702,17.917l-123.868-11.795
					c2.305-5.681,3.576-11.679,3.81-17.72L-2583.131-4756.45z"/>
				<path fill="#2B3237" d="M-2809.687-4766.361l-129.175,0.972c1.452-5.904,1.452-12.092,0.009-18.003l131.005-0.984
					C-2809.501-4778.509-2810.12-4772.41-2809.687-4766.361z"/>
				<path fill="#2B3237" d="M-2789.445-4616.823c-5.836-2.016-12.069-2.562-18.124-1.618l25.444-105.375
					c5.407,2.897,11.218,4.774,17.153,5.646L-2789.445-4616.823z"/>
				<path fill="#2B3237" d="M-2695.135-4683.33c-3.316,1.405-6.432,3.423-9.175,6.07l-30.141-45.594
					c3.26-1.581,6.396-3.513,9.341-5.815L-2695.135-4683.33z"/>
				<path fill="#2B3237" d="M-2795.567-4806.07l-35.57-42.22c2.433-1.306,4.727-2.958,6.803-4.981
					c0.627-0.615,1.218-1.251,1.781-1.902l35.32,41.925c-2.358,1.641-4.621,3.479-6.747,5.553
					C-2794.527-4807.163-2795.048-4806.616-2795.567-4806.07z"/>
				<path fill="#2B3237" d="M-2714.035-4956.607l-29.699,135.802c-5.901-1.581-12.021-2.116-18.074-1.601l30.08-137.55
					C-2726.143-4957.404-2720.06-4956.283-2714.035-4956.607z"/>
				<path fill="#2B3237" d="M-2721.265-4808.232l51.341-32.163c1.322,3.35,3.278,6.51,5.853,9.313l-49.966,31.306
					c-1.678-2.442-3.569-4.78-5.707-6.973C-2720.24-4807.26-2720.751-4807.747-2721.265-4808.232z"/>
				<path fill="#2B3237" d="M-2843.624-4711.312c-1.283-3.384-3.192-6.582-5.739-9.421l42.975-30.651
					c1.308,3.43,2.99,6.757,5.044,9.908L-2843.624-4711.312z"/>
				<path fill="#D09220" d="M-2795.166-4622.692c5.374,1.856,10.408,4.955,14.646,9.301c14.52,14.896,14.215,38.742-0.679,53.264
					c-14.895,14.522-38.747,14.217-53.267-0.678c-14.522-14.895-14.215-38.742,0.679-53.264c5.824-5.68,13.023-9.08,20.493-10.24
					C-2807.233-4625.249-2801.001-4624.708-2795.166-4622.692z"/>
				<path fill="#D09220" d="M-2583.131-4756.45c1.859-5.338,4.943-10.332,9.262-14.544c14.895-14.522,38.745-14.223,53.266,0.678
					c14.522,14.895,14.216,38.742-0.679,53.264c-14.895,14.522-38.744,14.217-53.267-0.678c-5.756-5.905-9.175-13.219-10.285-20.803
					C-2585.711-4744.525-2585.141-4750.685-2583.131-4756.45z"/>
				<path fill="#D09220" d="M-2689.768-4967.241c-6.8,6.635-15.471,10.163-24.267,10.634c-6.027,0.319-12.108-0.797-17.694-3.349
					c-4.113-1.879-7.958-4.525-11.306-7.963c-14.522-14.895-14.216-38.741,0.679-53.264c14.895-14.522,38.744-14.216,53.266,0.678
					C-2674.569-5005.609-2674.871-4981.757-2689.768-4967.241z"/>
				<path fill="#D09220" d="M-2938.862-4765.389c-1.622,6.606-5.045,12.854-10.276,17.951
					c-14.895,14.522-38.742,14.222-53.267-0.678c-14.522-14.895-14.215-38.742,0.679-53.264
					c14.895-14.522,38.744-14.216,53.267,0.678c4.868,4.995,8.062,10.994,9.605,17.31
					C-2937.408-4777.482-2937.415-4771.297-2938.862-4765.389z"/>
				<path fill="#D43D21" d="M-2743.427-4821.947c8.366,2.239,16.286,6.526,22.972,12.858c0.523,0.494,1.046,0.995,1.555,1.513
					c2.183,2.243,4.121,4.635,5.834,7.132c6.681,9.726,9.793,21.14,9.353,32.442c-0.243,6.169-1.538,12.307-3.897,18.115
					c-2.703,6.655-6.781,12.883-12.257,18.217c-1.446,1.413-2.959,2.716-4.517,3.933c-3.016,2.349-6.221,4.323-9.557,5.94
					c-9.78,4.735-20.677,6.328-31.205,4.788c-6.068-0.886-12.011-2.809-17.54-5.774c-4.722-2.531-9.146-5.81-13.084-9.85
					c-2.496-2.562-4.679-5.314-6.563-8.2c-2.102-3.225-3.82-6.624-5.158-10.135c-1.884-4.944-3.004-10.106-3.374-15.313
					c-0.441-6.182,0.191-12.417,1.883-18.418c2.271-8.067,6.454-15.702,12.556-22.177c0.528-0.562,1.063-1.121,1.621-1.664
					c2.173-2.118,4.486-4.001,6.898-5.677c7.866-5.469,16.852-8.591,25.996-9.372
					C-2755.718-4824.109-2749.459-4823.554-2743.427-4821.947z"/>
				<path fill="#E0DCD3" d="M-2850.776-4679.013c-11.927,11.628-31.029,11.388-42.658-0.542
					c-11.63-11.93-11.386-31.032,0.543-42.662c11.927-11.628,31.029-11.388,42.658,0.542c0.3,0.312,0.585,0.624,0.873,0.941
					c2.542,2.835,4.455,6.038,5.734,9.417C-2839.503-4700.426-2841.906-4687.656-2850.776-4679.013z"/>
				<path fill="#E0DCD3" d="M-2661.763-4676.611c11.629,11.93,11.386,31.032-0.543,42.662
					c-11.929,11.629-31.029,11.388-42.663-0.546c-11.63-11.93-11.384-31.027,0.545-42.657c0.037-0.04,0.075-0.074,0.114-0.108
					c2.743-2.647,5.859-4.665,9.175-6.07C-2684.025-4688.035-2670.693-4685.769-2661.763-4676.611z"/>
				<path fill="#E0DCD3" d="M-2662.922-4873.091c11.93-11.629,31.029-11.388,42.66,0.547c11.63,11.93,11.384,31.027-0.545,42.657
					c-11.929,11.629-31.028,11.388-42.658-0.542c-0.208-0.213-0.407-0.436-0.606-0.652c-2.575-2.803-4.531-5.963-5.853-9.313
					C-2674.255-4851.368-2671.897-4864.344-2662.922-4873.091z"/>
				<path fill="#E0DCD3" d="M-2831.137-4848.29c-11.548,6.204-26.252,4.33-35.858-5.521c-11.632-11.935-11.386-31.032,0.543-42.662
					c11.93-11.63,31.031-11.389,42.661,0.541c11.019,11.304,11.371,29.036,1.238,40.759c-0.563,0.651-1.154,1.288-1.781,1.902
					C-2826.41-4851.248-2828.705-4849.595-2831.137-4848.29z"/>
			</g>
		</g>
		<g>
			
				<g transform="matrix(0.15750337382986562 0.06406917044677742 -0.06406917044677742 0.15750337382986562 169.15378675192719 195.94874208918682)">
				<path fill="#2B3237" d="M-676.449-5532.05c-2.01,5.766-2.58,11.925-1.702,17.917l-123.868-11.795
					c2.305-5.681,3.576-11.679,3.81-17.72L-676.449-5532.05z"/>
				<path fill="#2B3237" d="M-903.005-5541.96l-129.175,0.972c1.449-5.903,1.452-12.092,0.009-18.003l131.005-0.985
					C-902.819-5554.108-903.438-5548.009-903.005-5541.96z"/>
				<path fill="#2B3237" d="M-882.763-5392.422c-5.836-2.016-12.069-2.562-18.127-1.617l25.447-105.377
					c5.407,2.897,11.215,4.776,17.153,5.646L-882.763-5392.422z"/>
				<path fill="#2B3237" d="M-788.452-5458.929c-3.316,1.405-6.432,3.423-9.175,6.07l-30.141-45.594
					c3.26-1.58,6.396-3.513,9.341-5.814L-788.452-5458.929z"/>
				<path fill="#2B3237" d="M-888.885-5581.669l-35.57-42.22c2.433-1.306,4.727-2.958,6.803-4.98
					c0.627-0.615,1.218-1.252,1.781-1.902l35.32,41.925c-2.358,1.641-4.621,3.479-6.747,5.553
					C-887.845-5582.762-888.369-5582.214-888.885-5581.669z"/>
				<path fill="#2B3237" d="M-807.353-5732.206l-29.699,135.801c-5.901-1.58-12.021-2.116-18.074-1.601l30.08-137.549
					C-819.461-5733.003-813.378-5731.882-807.353-5732.206z"/>
				<path fill="#2B3237" d="M-814.583-5583.831l51.341-32.163c1.322,3.35,3.277,6.51,5.853,9.313l-49.966,31.306
					c-1.679-2.442-3.569-4.779-5.707-6.973C-813.558-5582.859-814.069-5583.346-814.583-5583.831z"/>
				<path fill="#2B3237" d="M-936.942-5486.911c-1.284-3.384-3.192-6.582-5.739-9.421l42.975-30.65
					c1.308,3.43,2.99,6.757,5.044,9.908L-936.942-5486.911z"/>
				<path fill="#D09220" d="M-888.484-5398.292c5.374,1.856,10.408,4.955,14.646,9.301c14.52,14.896,14.215,38.742-0.679,53.264
					c-14.895,14.522-38.747,14.218-53.267-0.678c-14.522-14.895-14.215-38.742,0.679-53.264c5.824-5.68,13.023-9.08,20.493-10.24
					C-900.553-5400.847-894.32-5400.308-888.484-5398.292z"/>
				<path fill="#D09220" d="M-676.449-5532.05c1.859-5.338,4.943-10.332,9.262-14.543c14.895-14.522,38.742-14.222,53.266,0.678
					c14.522,14.895,14.215,38.742-0.679,53.264c-14.895,14.522-38.744,14.216-53.267-0.678c-5.756-5.905-9.175-13.219-10.285-20.803
					C-679.029-5520.125-678.459-5526.284-676.449-5532.05z"/>
				<path fill="#D09220" d="M-783.086-5742.84c-6.8,6.635-15.471,10.162-24.267,10.634c-6.027,0.319-12.108-0.797-17.694-3.349
					c-4.113-1.88-7.958-4.526-11.306-7.963c-14.522-14.895-14.215-38.742,0.679-53.264c14.895-14.522,38.744-14.217,53.266,0.678
					C-767.887-5781.208-768.189-5757.357-783.086-5742.84z"/>
				<path fill="#D09220" d="M-1032.18-5540.988c-1.622,6.606-5.045,12.853-10.276,17.951c-14.895,14.522-38.742,14.222-53.266-0.678
					c-14.522-14.895-14.215-38.742,0.679-53.264c14.895-14.522,38.744-14.217,53.266,0.678c4.869,4.995,8.062,10.994,9.605,17.31
					C-1030.726-5553.082-1030.733-5546.897-1032.18-5540.988z"/>
				<path fill="#D43D21" d="M-836.745-5597.546c8.367,2.239,16.286,6.526,22.973,12.858c0.523,0.494,1.046,0.994,1.555,1.513
					c2.183,2.243,4.121,4.636,5.834,7.132c6.681,9.726,9.793,21.14,9.353,32.442c-0.243,6.169-1.538,12.307-3.897,18.115
					c-2.703,6.655-6.781,12.884-12.257,18.217c-1.447,1.413-2.959,2.717-4.517,3.933c-3.016,2.349-6.221,4.323-9.557,5.939
					c-9.78,4.735-20.677,6.328-31.205,4.789c-6.068-0.886-12.012-2.809-17.54-5.774c-4.722-2.531-9.146-5.809-13.084-9.85
					c-2.496-2.563-4.679-5.314-6.563-8.2c-2.102-3.225-3.82-6.625-5.158-10.135c-1.884-4.944-3.004-10.106-3.374-15.313
					c-0.441-6.182,0.192-12.417,1.883-18.418c2.271-8.066,6.454-15.702,12.556-22.177c0.528-0.562,1.063-1.121,1.62-1.664
					c2.173-2.118,4.486-4.001,6.898-5.677c7.866-5.469,16.852-8.591,25.996-9.372
					C-849.036-5599.708-842.777-5599.154-836.745-5597.546z"/>
				<path fill="#E0DCD3" d="M-944.094-5454.613c-11.93,11.63-31.029,11.388-42.658-0.542c-11.632-11.928-11.386-31.032,0.543-42.662
					c11.927-11.628,31.029-11.388,42.658,0.542c0.3,0.312,0.585,0.624,0.873,0.941c2.542,2.835,4.455,6.037,5.734,9.417
					C-932.821-5476.026-935.224-5463.255-944.094-5454.613z"/>
				<path fill="#E0DCD3" d="M-755.081-5452.21c11.63,11.929,11.386,31.032-0.543,42.662c-11.93,11.629-31.029,11.388-42.663-0.546
					c-11.63-11.929-11.384-31.027,0.545-42.656c0.037-0.04,0.075-0.074,0.114-0.108c2.743-2.647,5.859-4.665,9.175-6.07
					C-777.343-5463.634-764.011-5461.369-755.081-5452.21z"/>
				<path fill="#E0DCD3" d="M-756.24-5648.69c11.927-11.628,31.029-11.388,42.66,0.547c11.63,11.929,11.384,31.027-0.545,42.656
					c-11.929,11.63-31.029,11.388-42.658-0.542c-0.208-0.213-0.407-0.436-0.606-0.652c-2.576-2.803-4.531-5.963-5.853-9.313
					C-767.573-5626.968-765.215-5639.943-756.24-5648.69z"/>
				<path fill="#E0DCD3" d="M-924.456-5623.889c-11.548,6.204-26.252,4.33-35.858-5.521c-11.632-11.935-11.386-31.032,0.543-42.662
					c11.93-11.629,31.029-11.388,42.661,0.541c11.019,11.304,11.371,29.036,1.238,40.76c-0.563,0.65-1.153,1.288-1.781,1.902
					C-919.728-5626.847-922.023-5625.195-924.456-5623.889z"/>
			</g>
		</g>
		<g>
			
				<g transform="matrix(0.15750337382986562 0.06406917044677742 -0.06406917044677742 0.15750337382986562 169.15378675192719 195.94874208918682)">
				<path fill="#2B3237" d="M1230.236-6307.65c-2.013,5.767-2.583,11.926-1.708,17.919l-123.863-11.797
					c2.303-5.68,3.571-11.677,3.81-17.72L1230.236-6307.65z"/>
				<path fill="#2B3237" d="M1003.677-6317.56l-129.172,0.971c1.449-5.903,1.449-12.091,0.006-18.002l131.008-0.985
					C1003.863-6329.708,1003.244-6323.608,1003.677-6317.56z"/>
				<path fill="#2B3237" d="M1023.919-6168.021c-5.836-2.016-12.072-2.561-18.124-1.618l25.444-105.375
					c5.407,2.897,11.218,4.774,17.153,5.646L1023.919-6168.021z"/>
				<path fill="#2B3237" d="M1118.229-6234.528c-3.316,1.405-6.432,3.423-9.175,6.07l-30.141-45.594
					c3.263-1.582,6.396-3.513,9.341-5.815L1118.229-6234.528z"/>
				<path fill="#2B3237" d="M1017.794-6357.268l-35.565-42.222c2.427-1.304,4.724-2.958,6.798-4.979
					c0.63-0.616,1.22-1.252,1.786-1.904l35.315,41.927c-2.358,1.642-4.618,3.479-6.744,5.552
					C1018.837-6358.361,1018.316-6357.814,1017.794-6357.268z"/>
				<path fill="#2B3237" d="M1099.326-6507.804l-29.697,135.8c-5.901-1.581-12.021-2.116-18.074-1.601l30.077-137.548
					C1087.221-6508.603,1093.302-6507.48,1099.326-6507.804z"/>
				<path fill="#2B3237" d="M1092.099-6359.431l51.344-32.164c1.32,3.351,3.275,6.511,5.848,9.315l-49.963,31.305
					c-1.676-2.443-3.569-4.78-5.707-6.973C1093.121-6358.458,1092.613-6358.945,1092.099-6359.431z"/>
				<path fill="#2B3237" d="M969.74-6262.511c-1.284-3.384-3.192-6.582-5.736-9.422l42.975-30.65
					c1.303,3.432,2.985,6.759,5.042,9.91L969.74-6262.511z"/>
				<path fill="#D09220" d="M1018.201-6173.892c5.369,1.858,10.405,4.956,14.641,9.303c14.522,14.895,14.215,38.741-0.679,53.264
					c-14.895,14.522-38.742,14.215-53.264-0.679s-14.215-38.742,0.679-53.264c5.824-5.68,13.023-9.08,20.493-10.24
					C1006.131-6176.448,1012.365-6175.908,1018.201-6173.892z"/>
				<path fill="#D09220" d="M1230.236-6307.65c1.853-5.336,4.943-10.331,9.262-14.543c14.895-14.522,38.74-14.221,53.264,0.679
					c14.522,14.895,14.215,38.742-0.679,53.264c-14.895,14.522-38.747,14.218-53.264-0.679c-5.762-5.902-9.178-13.218-10.291-20.801
					C1227.653-6295.724,1228.223-6301.883,1230.236-6307.65z"/>
				<path fill="#D09220" d="M1123.596-6518.439c-6.8,6.635-15.471,10.163-24.27,10.635c-6.027,0.319-12.105-0.799-17.694-3.349
					c-4.113-1.88-7.955-4.527-11.306-7.963c-14.517-14.897-14.215-38.742,0.679-53.264c14.895-14.522,38.747-14.217,53.269,0.677
					C1138.797-6556.809,1138.493-6532.956,1123.596-6518.439z"/>
				<path fill="#D09220" d="M874.504-6316.589c-1.622,6.606-5.051,12.855-10.281,17.953c-14.895,14.522-38.74,14.221-53.264-0.679
					c-14.522-14.895-14.215-38.742,0.679-53.264c14.895-14.522,38.747-14.217,53.264,0.679c4.871,4.994,8.062,10.994,9.608,17.309
					C875.954-6328.68,875.951-6322.497,874.504-6316.589z"/>
				<path fill="#D43D21" d="M1069.934-6373.145c8.369,2.238,16.289,6.525,22.975,12.857c0.523,0.494,1.049,0.993,1.552,1.514
					c2.189,2.241,4.124,4.634,5.839,7.13c6.679,9.727,9.79,21.141,9.347,32.444c-0.238,6.167-1.536,12.306-3.897,18.115
					c-2.7,6.654-6.776,12.881-12.251,18.215c-1.452,1.416-2.962,2.718-4.519,3.934c-3.013,2.348-6.221,4.323-9.557,5.94
					c-9.78,4.735-20.677,6.328-31.205,4.788c-6.07-0.885-12.012-2.809-17.54-5.774c-4.724-2.53-9.146-5.81-13.084-9.85
					c-2.499-2.561-4.679-5.314-6.56-8.201c-2.105-3.224-3.823-6.623-5.158-10.135c-1.887-4.943-3.007-10.105-3.376-15.312
					c-0.438-6.183,0.194-12.417,1.883-18.418c2.274-8.068,6.454-15.702,12.556-22.177c0.528-0.562,1.063-1.121,1.623-1.665
					c2.171-2.117,4.486-4.001,6.898-5.677c7.864-5.468,16.849-8.59,25.993-9.371
					C1057.646-6375.308,1063.905-6374.753,1069.934-6373.145z"/>
				<path fill="#E0DCD3" d="M962.591-6230.213c-11.929,11.629-31.031,11.389-42.661-0.541c-11.63-11.93-11.389-31.031,0.541-42.661
					c11.929-11.63,31.031-11.389,42.661,0.54c0.3,0.312,0.588,0.623,0.873,0.941c2.542,2.835,4.453,6.039,5.734,9.417
					C973.864-6251.626,971.458-6238.854,962.591-6230.213z"/>
				<path fill="#E0DCD3" d="M1151.599-6227.809c11.635,11.928,11.389,31.031-0.54,42.661c-11.93,11.629-31.031,11.389-42.663-0.546
					c-11.63-11.93-11.381-31.028,0.548-42.658c0.034-0.039,0.075-0.074,0.111-0.107c2.743-2.647,5.859-4.665,9.175-6.07
					C1129.337-6239.232,1142.671-6236.968,1151.599-6227.809z"/>
				<path fill="#E0DCD3" d="M1150.442-6424.29c11.929-11.629,31.026-11.387,42.663,0.546c11.63,11.93,11.382,31.028-0.548,42.658
					c-11.929,11.629-31.031,11.389-42.661-0.541c-0.205-0.214-0.401-0.438-0.606-0.652c-2.573-2.804-4.528-5.964-5.848-9.315
					C1139.109-6402.567,1141.469-6415.543,1150.442-6424.29z"/>
				<path fill="#E0DCD3" d="M982.229-6399.489c-11.55,6.205-26.252,4.33-35.858-5.521c-11.632-11.935-11.389-31.031,0.54-42.661
					c11.93-11.63,31.031-11.389,42.661,0.541c11.016,11.305,11.371,29.036,1.24,40.758c-0.566,0.652-1.156,1.289-1.781,1.902
					C986.954-6402.447,984.656-6400.793,982.229-6399.489z"/>
			</g>
		</g>
	</g>
</pattern>
<rect fill="#87CEFA" width="700" height="350"/>
<g fi:class="KUsePattern" opacity="0.11">
	<pattern  id="SVGID_1_" xlink:href="#pattern_L1_9" patternTransform="matrix(1 0 0 -1 -199.5 -16892.3613)"  opacity="0.11">
	</pattern>
	<rect fill="url(#SVGID_1_)" width="700" height="350"/>
</g>
<g fi:class="KUsePattern" opacity="0.17">
	<pattern  id="SVGID_2_" xlink:href="#pattern_L1_7" patternTransform="matrix(1 0 0 -1 -199.5 -17259.3809)"  opacity="0.17">
	</pattern>
	<rect fill="url(#SVGID_2_)" width="700" height="350"/>
</g>
</svg>
